STARTFONT 2.1
COMMENT Exported by Fony v1.4.6
FONT Fixed
SIZE 48 100 100
FONTBOUNDINGBOX 30 47 0 -2
STARTPROPERTIES 6
COPYRIGHT "Public domain terminal emulator font.  Share and enjoy. original font -Misc-Fixed-Medium-R-SemiCondensed--12-110-75-75-C-60-ISO10646-1"
RESOLUTION_X 100
RESOLUTION_Y 100
FONT_ASCENT 46
FONT_DESCENT 2
DEFAULT_CHAR 0
ENDPROPERTIES
CHARS 256
STARTCHAR 000
ENCODING 0
SWIDTH 1656 0
DWIDTH 23 0
BBX 0 0 0 0
BITMAP
ENDCHAR
STARTCHAR 001
ENCODING 1
SWIDTH 2016 0
DWIDTH 28 0
BBX 24 32 0 6
BITMAP
07C000
07C000
07C000
07C000
FFFFE0
FFFFE0
FFFFE0
FFFFE0
FFC01F
FFC01F
FFC01F
FFC01F
F8001F
F8001F
F8001F
F8001F
F8001F
F8001F
F8001F
F8001F
F803FF
F803FF
F803FF
F803FF
07FFFF
07FFFF
07FFFF
07FFFF
0003E0
0003E0
0003E0
0003E0
ENDCHAR
STARTCHAR 002
ENCODING 2
SWIDTH 2016 0
DWIDTH 28 0
BBX 24 32 0 6
BITMAP
FFC000
FFC000
FFC000
FFC000
FFFFFF
FFFFFF
FFFFFF
FFFFFF
F8001F
F8001F
F8001F
F8001F
F8001F
F8001F
F8001F
F8001F
F8001F
F8001F
F8001F
F8001F
F8001F
F8001F
F8001F
F8001F
F8001F
F8001F
F8001F
F8001F
FFFFFF
FFFFFF
FFFFFF
FFFFFF
ENDCHAR
STARTCHAR 003
ENCODING 3
SWIDTH 2016 0
DWIDTH 28 0
BBX 23 20 0 10
BITMAP
003C00
003E00
003F00
003F80
003FC0
003FE0
003FF0
003FF8
FFFFFC
FFFFFE
FFFFFE
FFFFFC
003FF8
003FF0
003FE0
003FC0
003F80
003F00
003E00
003C00
ENDCHAR
STARTCHAR 004
ENCODING 4
SWIDTH 2016 0
DWIDTH 28 0
BBX 23 34 0 6
BITMAP
001000
003800
007C00
00FE00
01FF00
03FF80
07FFC0
0FFFE0
1FFFF0
3FFFF8
7FFFFC
FFFFFE
FFFFFE
FFFFFE
003C00
003C00
003C00
003C00
003C00
003C00
003C00
003C00
003C00
003C00
003C00
003C00
003C00
003C00
003C00
003C00
FFFC00
FFFC00
FFFC00
FFFC00
ENDCHAR
STARTCHAR 005
ENCODING 5
SWIDTH 2016 0
DWIDTH 28 0
BBX 24 36 0 2
BITMAP
003C00
003C00
003C00
003C00
07FFE0
07FFE0
07FFE0
07FFE0
F83C1F
F83C1F
F83C1F
F83C1F
F83C1F
F83C1F
F83C1F
F83C1F
F83FFF
F83FFF
F83FFF
F83FFF
F8001F
F8001F
F8001F
F8001F
F8001F
F8001F
F8001F
F8001F
07FFE0
07FFE0
07FFE0
07FFE0
003C00
003C00
003C00
003C00
ENDCHAR
STARTCHAR 006
ENCODING 6
SWIDTH 2160 0
DWIDTH 30 0
BBX 27 20 0 10
BITMAP
FF0FE000
FF0FE000
FF0FE000
FF0FE000
0FF1FE00
0FF1FE00
0FF1FE00
0FF1FE00
00FE1FE0
00FE1FE0
00FE1FE0
00FE1FE0
0FF1FE00
0FF1FE00
0FF1FE00
0FF1FE00
FF0FE000
FF0FE000
FF0FE000
FF0FE000
ENDCHAR
STARTCHAR 007
ENCODING 7
SWIDTH 2016 0
DWIDTH 28 0
BBX 24 36 0 2
BITMAP
FFFFFF
FFFFFF
FFFFFF
FFFFFF
F83C1F
F83C1F
F83C1F
F83C1F
F8001F
F8001F
F8001F
F8001F
F8001F
F8001F
F8001F
F8001F
F8001F
F8001F
F8001F
F8001F
F8001F
F8001F
F8001F
F8001F
F8001F
F8001F
F8001F
F8001F
F83C1F
F83C1F
F83C1F
F83C1F
FFFFFF
FFFFFF
FFFFFF
FFFFFF
ENDCHAR
STARTCHAR 008
ENCODING 8
SWIDTH 2016 0
DWIDTH 28 0
BBX 24 40 0 -2
BITMAP
003C00
003C00
003C00
003C00
07C3E0
07C3E0
07C3E0
07C3E0
07C3E0
07C3E0
07C3E0
07C3E0
07C3E0
07C3E0
07C3E0
07C3E0
07C3E0
07C3E0
07C3E0
07C3E0
F8001F
F8001F
F8001F
F8001F
F83C1F
F83C1F
F83C1F
F83C1F
F83C1F
F83C1F
F83C1F
F83C1F
F8001F
F8001F
F8001F
F8001F
07FFE0
07FFE0
07FFE0
07FFE0
ENDCHAR
STARTCHAR 009
ENCODING 9
SWIDTH 2016 0
DWIDTH 28 0
BBX 13 12 1 18
BITMAP
0F80
0F80
0F80
0F80
F078
F078
F078
F078
0F80
0F80
0F80
0F80
ENDCHAR
STARTCHAR 010
ENCODING 10
SWIDTH 1656 0
DWIDTH 23 0
BBX 0 0 0 0
BITMAP
ENDCHAR
STARTCHAR 011
ENCODING 11
SWIDTH 1656 0
DWIDTH 23 0
BBX 0 0 0 0
BITMAP
ENDCHAR
STARTCHAR 012
ENCODING 12
SWIDTH 1656 0
DWIDTH 23 0
BBX 0 0 0 0
BITMAP
ENDCHAR
STARTCHAR 013
ENCODING 13
SWIDTH 1656 0
DWIDTH 23 0
BBX 0 0 0 0
BITMAP
ENDCHAR
STARTCHAR 014
ENCODING 14
SWIDTH 1656 0
DWIDTH 23 0
BBX 0 0 0 0
BITMAP
ENDCHAR
STARTCHAR 015
ENCODING 15
SWIDTH 1656 0
DWIDTH 23 0
BBX 0 0 0 0
BITMAP
ENDCHAR
STARTCHAR 016
ENCODING 16
SWIDTH 1656 0
DWIDTH 23 0
BBX 0 0 0 0
BITMAP
ENDCHAR
STARTCHAR 017
ENCODING 17
SWIDTH 1656 0
DWIDTH 23 0
BBX 0 0 0 0
BITMAP
ENDCHAR
STARTCHAR 018
ENCODING 18
SWIDTH 1656 0
DWIDTH 23 0
BBX 0 0 0 0
BITMAP
ENDCHAR
STARTCHAR 019
ENCODING 19
SWIDTH 1656 0
DWIDTH 23 0
BBX 0 0 0 0
BITMAP
ENDCHAR
STARTCHAR 020
ENCODING 20
SWIDTH 1656 0
DWIDTH 23 0
BBX 0 0 0 0
BITMAP
ENDCHAR
STARTCHAR 021
ENCODING 21
SWIDTH 1656 0
DWIDTH 23 0
BBX 0 0 0 0
BITMAP
ENDCHAR
STARTCHAR 022
ENCODING 22
SWIDTH 1656 0
DWIDTH 23 0
BBX 0 0 0 0
BITMAP
ENDCHAR
STARTCHAR 023
ENCODING 23
SWIDTH 1656 0
DWIDTH 23 0
BBX 0 0 0 0
BITMAP
ENDCHAR
STARTCHAR 024
ENCODING 24
SWIDTH 1656 0
DWIDTH 23 0
BBX 0 0 0 0
BITMAP
ENDCHAR
STARTCHAR 025
ENCODING 25
SWIDTH 1656 0
DWIDTH 23 0
BBX 0 0 0 0
BITMAP
ENDCHAR
STARTCHAR 026
ENCODING 26
SWIDTH 1656 0
DWIDTH 23 0
BBX 0 0 0 0
BITMAP
ENDCHAR
STARTCHAR 027
ENCODING 27
SWIDTH 1656 0
DWIDTH 23 0
BBX 0 0 0 0
BITMAP
ENDCHAR
STARTCHAR 028
ENCODING 28
SWIDTH 1656 0
DWIDTH 23 0
BBX 0 0 0 0
BITMAP
ENDCHAR
STARTCHAR 029
ENCODING 29
SWIDTH 1656 0
DWIDTH 23 0
BBX 0 0 0 0
BITMAP
ENDCHAR
STARTCHAR 030
ENCODING 30
SWIDTH 1656 0
DWIDTH 23 0
BBX 0 0 0 0
BITMAP
ENDCHAR
STARTCHAR 031
ENCODING 31
SWIDTH 1656 0
DWIDTH 23 0
BBX 0 0 0 0
BITMAP
ENDCHAR
STARTCHAR 032
ENCODING 32
SWIDTH 2016 0
DWIDTH 28 0
BBX 0 0 0 0
BITMAP
ENDCHAR
STARTCHAR 033
ENCODING 33
SWIDTH 2016 0
DWIDTH 28 0
BBX 4 28 10 6
BITMAP
F0
F0
F0
F0
F0
F0
F0
F0
F0
F0
F0
F0
F0
F0
F0
F0
F0
F0
F0
F0
00
00
00
00
F0
F0
F0
F0
ENDCHAR
STARTCHAR 034
ENCODING 34
SWIDTH 2016 0
DWIDTH 28 0
BBX 14 12 5 26
BITMAP
F87C
F87C
F87C
F87C
F87C
F87C
F87C
F87C
F87C
F87C
F87C
F87C
ENDCHAR
STARTCHAR 035
ENCODING 35
SWIDTH 2016 0
DWIDTH 28 0
BBX 24 24 0 6
BITMAP
07C3E0
07C3E0
07C3E0
07C3E0
FFFFFF
FFFFFF
FFFFFF
FFFFFF
07C3E0
07C3E0
07C3E0
07C3E0
07C3E0
07C3E0
07C3E0
07C3E0
FFFFFF
FFFFFF
FFFFFF
FFFFFF
07C3E0
07C3E0
07C3E0
07C3E0
ENDCHAR
STARTCHAR 036
ENCODING 36
SWIDTH 2016 0
DWIDTH 28 0
BBX 24 36 0 2
BITMAP
003C00
003C00
003C00
003C00
07FFE0
07FFE0
07FFE0
07FFE0
F83C1F
F83C1F
F83C1F
F83C1F
F83C00
F83C00
F83C00
F83C00
07FFE0
07FFE0
07FFE0
07FFE0
003C1F
003C1F
003C1F
003C1F
F83C1F
F83C1F
F83C1F
F83C1F
07FFE0
07FFE0
07FFE0
07FFE0
003C00
003C00
003C00
003C00
ENDCHAR
STARTCHAR 037
ENCODING 37
SWIDTH 2016 0
DWIDTH 28 0
BBX 24 28 0 6
BITMAP
FFC01F
FFC01F
FFC01F
FFC01F
FFC01F
FFC01F
FFC01F
FFC01F
0003E0
0003E0
0003E0
0003E0
003C00
003C00
003C00
003C00
07C000
07C000
07C000
07C000
F803FF
F803FF
F803FF
F803FF
F803FF
F803FF
F803FF
F803FF
ENDCHAR
STARTCHAR 038
ENCODING 38
SWIDTH 2016 0
DWIDTH 28 0
BBX 24 28 0 6
BITMAP
07C000
07C000
07C000
07C000
F83C00
F83C00
F83C00
F83C00
F83C00
F83C00
F83C00
F83C00
07C000
07C000
07C000
07C000
F83C1F
F83C1F
F83C1F
F83C1F
F803E0
F803E0
F803E0
F803E0
07FC1F
07FC1F
07FC1F
07FC1F
ENDCHAR
STARTCHAR 039
ENCODING 39
SWIDTH 2016 0
DWIDTH 28 0
BBX 4 12 10 26
BITMAP
F0
F0
F0
F0
F0
F0
F0
F0
F0
F0
F0
F0
ENDCHAR
STARTCHAR 040
ENCODING 40
SWIDTH 2016 0
DWIDTH 28 0
BBX 14 36 5 2
BITMAP
007C
007C
007C
007C
0780
0780
0780
0780
0780
0780
0780
0780
F800
F800
F800
F800
F800
F800
F800
F800
F800
F800
F800
F800
0780
0780
0780
0780
0780
0780
0780
0780
007C
007C
007C
007C
ENDCHAR
STARTCHAR 041
ENCODING 41
SWIDTH 2016 0
DWIDTH 28 0
BBX 14 36 5 2
BITMAP
F800
F800
F800
F800
0780
0780
0780
0780
0780
0780
0780
0780
007C
007C
007C
007C
007C
007C
007C
007C
007C
007C
007C
007C
0780
0780
0780
0780
0780
0780
0780
0780
F800
F800
F800
F800
ENDCHAR
STARTCHAR 042
ENCODING 42
SWIDTH 2016 0
DWIDTH 28 0
BBX 24 28 0 6
BITMAP
003C00
003C00
003C00
003C00
F83C1F
F83C1F
F83C1F
F83C1F
07FFE0
07FFE0
07FFE0
07FFE0
003C00
003C00
003C00
003C00
07FFE0
07FFE0
07FFE0
07FFE0
F83C1F
F83C1F
F83C1F
F83C1F
003C00
003C00
003C00
003C00
ENDCHAR
STARTCHAR 043
ENCODING 43
SWIDTH 2016 0
DWIDTH 28 0
BBX 24 20 0 10
BITMAP
003C00
003C00
003C00
003C00
003C00
003C00
003C00
003C00
FFFFFF
FFFFFF
FFFFFF
FFFFFF
003C00
003C00
003C00
003C00
003C00
003C00
003C00
003C00
ENDCHAR
STARTCHAR 044
ENCODING 44
SWIDTH 2016 0
DWIDTH 28 0
BBX 9 12 5 2
BITMAP
FF80
FF80
FF80
FF80
0780
0780
0780
0780
F800
F800
F800
F800
ENDCHAR
STARTCHAR 045
ENCODING 45
SWIDTH 2016 0
DWIDTH 28 0
BBX 24 4 0 18
BITMAP
FFFFFF
FFFFFF
FFFFFF
FFFFFF
ENDCHAR
STARTCHAR 046
ENCODING 46
SWIDTH 2016 0
DWIDTH 28 0
BBX 9 8 5 6
BITMAP
FF80
FF80
FF80
FF80
FF80
FF80
FF80
FF80
ENDCHAR
STARTCHAR 047
ENCODING 47
SWIDTH 2016 0
DWIDTH 28 0
BBX 24 28 0 6
BITMAP
00001F
00001F
00001F
00001F
0003E0
0003E0
0003E0
0003E0
0003E0
0003E0
0003E0
0003E0
003C00
003C00
003C00
003C00
07C000
07C000
07C000
07C000
07C000
07C000
07C000
07C000
F80000
F80000
F80000
F80000
ENDCHAR
STARTCHAR 048
ENCODING 48
SWIDTH 2016 0
DWIDTH 28 0
BBX 24 28 0 6
BITMAP
07FFE0
07FFE0
07FFE0
07FFE0
F8001F
F8001F
F8001F
F8001F
F803FF
F803FF
F803FF
F803FF
F83C1F
F83C1F
F83C1F
F83C1F
FFC01F
FFC01F
FFC01F
FFC01F
F8001F
F8001F
F8001F
F8001F
07FFE0
07FFE0
07FFE0
07FFE0
ENDCHAR
STARTCHAR 049
ENCODING 49
SWIDTH 2016 0
DWIDTH 28 0
BBX 14 28 5 6
BITMAP
0780
0780
0780
0780
FF80
FF80
FF80
FF80
0780
0780
0780
0780
0780
0780
0780
0780
0780
0780
0780
0780
0780
0780
0780
0780
FFFC
FFFC
FFFC
FFFC
ENDCHAR
STARTCHAR 050
ENCODING 50
SWIDTH 2016 0
DWIDTH 28 0
BBX 24 28 0 6
BITMAP
07FFE0
07FFE0
07FFE0
07FFE0
F8001F
F8001F
F8001F
F8001F
00001F
00001F
00001F
00001F
0003E0
0003E0
0003E0
0003E0
003C00
003C00
003C00
003C00
07C000
07C000
07C000
07C000
FFFFFF
FFFFFF
FFFFFF
FFFFFF
ENDCHAR
STARTCHAR 051
ENCODING 51
SWIDTH 2016 0
DWIDTH 28 0
BBX 24 28 0 6
BITMAP
FFFFFF
FFFFFF
FFFFFF
FFFFFF
00001F
00001F
00001F
00001F
0003E0
0003E0
0003E0
0003E0
003FE0
003FE0
003FE0
003FE0
00001F
00001F
00001F
00001F
F8001F
F8001F
F8001F
F8001F
07FFE0
07FFE0
07FFE0
07FFE0
ENDCHAR
STARTCHAR 052
ENCODING 52
SWIDTH 2016 0
DWIDTH 28 0
BBX 24 28 0 6
BITMAP
0003E0
0003E0
0003E0
0003E0
003FE0
003FE0
003FE0
003FE0
07C3E0
07C3E0
07C3E0
07C3E0
F803E0
F803E0
F803E0
F803E0
FFFFFF
FFFFFF
FFFFFF
FFFFFF
0003E0
0003E0
0003E0
0003E0
0003E0
0003E0
0003E0
0003E0
ENDCHAR
STARTCHAR 053
ENCODING 53
SWIDTH 2016 0
DWIDTH 28 0
BBX 24 28 0 6
BITMAP
FFFFFF
FFFFFF
FFFFFF
FFFFFF
F80000
F80000
F80000
F80000
FFFFE0
FFFFE0
FFFFE0
FFFFE0
00001F
00001F
00001F
00001F
00001F
00001F
00001F
00001F
F8001F
F8001F
F8001F
F8001F
07FFE0
07FFE0
07FFE0
07FFE0
ENDCHAR
STARTCHAR 054
ENCODING 54
SWIDTH 2016 0
DWIDTH 28 0
BBX 24 28 0 6
BITMAP
003FE0
003FE0
003FE0
003FE0
07C000
07C000
07C000
07C000
F80000
F80000
F80000
F80000
FFFFE0
FFFFE0
FFFFE0
FFFFE0
F8001F
F8001F
F8001F
F8001F
F8001F
F8001F
F8001F
F8001F
07FFE0
07FFE0
07FFE0
07FFE0
ENDCHAR
STARTCHAR 055
ENCODING 55
SWIDTH 2016 0
DWIDTH 28 0
BBX 24 28 0 6
BITMAP
FFFFFF
FFFFFF
FFFFFF
FFFFFF
00001F
00001F
00001F
00001F
0003E0
0003E0
0003E0
0003E0
0003E0
0003E0
0003E0
0003E0
003C00
003C00
003C00
003C00
003C00
003C00
003C00
003C00
003C00
003C00
003C00
003C00
ENDCHAR
STARTCHAR 056
ENCODING 56
SWIDTH 2016 0
DWIDTH 28 0
BBX 24 28 0 6
BITMAP
07FFE0
07FFE0
07FFE0
07FFE0
F8001F
F8001F
F8001F
F8001F
F8001F
F8001F
F8001F
F8001F
07FFE0
07FFE0
07FFE0
07FFE0
F8001F
F8001F
F8001F
F8001F
F8001F
F8001F
F8001F
F8001F
07FFE0
07FFE0
07FFE0
07FFE0
ENDCHAR
STARTCHAR 057
ENCODING 57
SWIDTH 2016 0
DWIDTH 28 0
BBX 24 28 0 6
BITMAP
07FFE0
07FFE0
07FFE0
07FFE0
F8001F
F8001F
F8001F
F8001F
F8001F
F8001F
F8001F
F8001F
07FFFF
07FFFF
07FFFF
07FFFF
00001F
00001F
00001F
00001F
0003E0
0003E0
0003E0
0003E0
07FC00
07FC00
07FC00
07FC00
ENDCHAR
STARTCHAR 058
ENCODING 58
SWIDTH 2016 0
DWIDTH 28 0
BBX 9 20 5 6
BITMAP
FF80
FF80
FF80
FF80
FF80
FF80
FF80
FF80
0000
0000
0000
0000
FF80
FF80
FF80
FF80
FF80
FF80
FF80
FF80
ENDCHAR
STARTCHAR 059
ENCODING 59
SWIDTH 2016 0
DWIDTH 28 0
BBX 9 24 5 2
BITMAP
FF80
FF80
FF80
FF80
FF80
FF80
FF80
FF80
0000
0000
0000
0000
FF80
FF80
FF80
FF80
0780
0780
0780
0780
F800
F800
F800
F800
ENDCHAR
STARTCHAR 060
ENCODING 60
SWIDTH 2016 0
DWIDTH 28 0
BBX 14 20 5 10
BITMAP
007C
007C
007C
007C
0780
0780
0780
0780
F800
F800
F800
F800
0780
0780
0780
0780
007C
007C
007C
007C
ENDCHAR
STARTCHAR 061
ENCODING 61
SWIDTH 2016 0
DWIDTH 28 0
BBX 24 12 0 14
BITMAP
FFFFFF
FFFFFF
FFFFFF
FFFFFF
000000
000000
000000
000000
FFFFFF
FFFFFF
FFFFFF
FFFFFF
ENDCHAR
STARTCHAR 062
ENCODING 62
SWIDTH 2016 0
DWIDTH 28 0
BBX 14 20 5 10
BITMAP
F800
F800
F800
F800
0780
0780
0780
0780
007C
007C
007C
007C
0780
0780
0780
0780
F800
F800
F800
F800
ENDCHAR
STARTCHAR 063
ENCODING 63
SWIDTH 2016 0
DWIDTH 28 0
BBX 24 28 0 6
BITMAP
07FFE0
07FFE0
07FFE0
07FFE0
F8001F
F8001F
F8001F
F8001F
0003E0
0003E0
0003E0
0003E0
003C00
003C00
003C00
003C00
003C00
003C00
003C00
003C00
000000
000000
000000
000000
003C00
003C00
003C00
003C00
ENDCHAR
STARTCHAR 064
ENCODING 64
SWIDTH 2016 0
DWIDTH 28 0
BBX 24 28 0 6
BITMAP
07FFE0
07FFE0
07FFE0
07FFE0
F8001F
F8001F
F8001F
F8001F
F83FFF
F83FFF
F83FFF
F83FFF
F83C1F
F83C1F
F83C1F
F83C1F
F83FFF
F83FFF
F83FFF
F83FFF
F80000
F80000
F80000
F80000
07FFE0
07FFE0
07FFE0
07FFE0
ENDCHAR
STARTCHAR 065
ENCODING 65
SWIDTH 2016 0
DWIDTH 28 0
BBX 24 28 0 6
BITMAP
07FFE0
07FFE0
07FFE0
07FFE0
F8001F
F8001F
F8001F
F8001F
F8001F
F8001F
F8001F
F8001F
FFFFFF
FFFFFF
FFFFFF
FFFFFF
F8001F
F8001F
F8001F
F8001F
F8001F
F8001F
F8001F
F8001F
F8001F
F8001F
F8001F
F8001F
ENDCHAR
STARTCHAR 066
ENCODING 66
SWIDTH 2016 0
DWIDTH 28 0
BBX 24 28 0 6
BITMAP
FFFFE0
FFFFE0
FFFFE0
FFFFE0
07C01F
07C01F
07C01F
07C01F
07C01F
07C01F
07C01F
07C01F
07FFE0
07FFE0
07FFE0
07FFE0
07C01F
07C01F
07C01F
07C01F
07C01F
07C01F
07C01F
07C01F
FFFFE0
FFFFE0
FFFFE0
FFFFE0
ENDCHAR
STARTCHAR 067
ENCODING 67
SWIDTH 2016 0
DWIDTH 28 0
BBX 24 28 0 6
BITMAP
07FFE0
07FFE0
07FFE0
07FFE0
F8001F
F8001F
F8001F
F8001F
F80000
F80000
F80000
F80000
F80000
F80000
F80000
F80000
F80000
F80000
F80000
F80000
F8001F
F8001F
F8001F
F8001F
07FFE0
07FFE0
07FFE0
07FFE0
ENDCHAR
STARTCHAR 068
ENCODING 68
SWIDTH 2016 0
DWIDTH 28 0
BBX 24 28 0 6
BITMAP
FFFFE0
FFFFE0
FFFFE0
FFFFE0
07C01F
07C01F
07C01F
07C01F
07C01F
07C01F
07C01F
07C01F
07C01F
07C01F
07C01F
07C01F
07C01F
07C01F
07C01F
07C01F
07C01F
07C01F
07C01F
07C01F
FFFFE0
FFFFE0
FFFFE0
FFFFE0
ENDCHAR
STARTCHAR 069
ENCODING 69
SWIDTH 2016 0
DWIDTH 28 0
BBX 24 28 0 6
BITMAP
FFFFFF
FFFFFF
FFFFFF
FFFFFF
F80000
F80000
F80000
F80000
F80000
F80000
F80000
F80000
FFFFE0
FFFFE0
FFFFE0
FFFFE0
F80000
F80000
F80000
F80000
F80000
F80000
F80000
F80000
FFFFFF
FFFFFF
FFFFFF
FFFFFF
ENDCHAR
STARTCHAR 070
ENCODING 70
SWIDTH 2016 0
DWIDTH 28 0
BBX 24 28 0 6
BITMAP
FFFFFF
FFFFFF
FFFFFF
FFFFFF
F80000
F80000
F80000
F80000
F80000
F80000
F80000
F80000
FFFFE0
FFFFE0
FFFFE0
FFFFE0
F80000
F80000
F80000
F80000
F80000
F80000
F80000
F80000
F80000
F80000
F80000
F80000
ENDCHAR
STARTCHAR 071
ENCODING 71
SWIDTH 2016 0
DWIDTH 28 0
BBX 24 28 0 6
BITMAP
07FFE0
07FFE0
07FFE0
07FFE0
F8001F
F8001F
F8001F
F8001F
F80000
F80000
F80000
F80000
F80000
F80000
F80000
F80000
F803FF
F803FF
F803FF
F803FF
F8001F
F8001F
F8001F
F8001F
07FFE0
07FFE0
07FFE0
07FFE0
ENDCHAR
STARTCHAR 072
ENCODING 72
SWIDTH 2016 0
DWIDTH 28 0
BBX 24 28 0 6
BITMAP
F8001F
F8001F
F8001F
F8001F
F8001F
F8001F
F8001F
F8001F
F8001F
F8001F
F8001F
F8001F
FFFFFF
FFFFFF
FFFFFF
FFFFFF
F8001F
F8001F
F8001F
F8001F
F8001F
F8001F
F8001F
F8001F
F8001F
F8001F
F8001F
F8001F
ENDCHAR
STARTCHAR 073
ENCODING 73
SWIDTH 2016 0
DWIDTH 28 0
BBX 14 28 5 6
BITMAP
FFFC
FFFC
FFFC
FFFC
0780
0780
0780
0780
0780
0780
0780
0780
0780
0780
0780
0780
0780
0780
0780
0780
0780
0780
0780
0780
FFFC
FFFC
FFFC
FFFC
ENDCHAR
STARTCHAR 074
ENCODING 74
SWIDTH 2016 0
DWIDTH 28 0
BBX 24 28 0 6
BITMAP
003FFF
003FFF
003FFF
003FFF
0003E0
0003E0
0003E0
0003E0
0003E0
0003E0
0003E0
0003E0
0003E0
0003E0
0003E0
0003E0
0003E0
0003E0
0003E0
0003E0
F803E0
F803E0
F803E0
F803E0
07FC00
07FC00
07FC00
07FC00
ENDCHAR
STARTCHAR 075
ENCODING 75
SWIDTH 2016 0
DWIDTH 28 0
BBX 24 28 0 6
BITMAP
F8001F
F8001F
F8001F
F8001F
F803E0
F803E0
F803E0
F803E0
F83C00
F83C00
F83C00
F83C00
FFC000
FFC000
FFC000
FFC000
F83C00
F83C00
F83C00
F83C00
F803E0
F803E0
F803E0
F803E0
F8001F
F8001F
F8001F
F8001F
ENDCHAR
STARTCHAR 076
ENCODING 76
SWIDTH 2016 0
DWIDTH 28 0
BBX 24 28 0 6
BITMAP
F80000
F80000
F80000
F80000
F80000
F80000
F80000
F80000
F80000
F80000
F80000
F80000
F80000
F80000
F80000
F80000
F80000
F80000
F80000
F80000
F80000
F80000
F80000
F80000
FFFFFF
FFFFFF
FFFFFF
FFFFFF
ENDCHAR
STARTCHAR 077
ENCODING 77
SWIDTH 2016 0
DWIDTH 28 0
BBX 24 28 0 6
BITMAP
F8001F
F8001F
F8001F
F8001F
FFC3FF
FFC3FF
FFC3FF
FFC3FF
F83C1F
F83C1F
F83C1F
F83C1F
F8001F
F8001F
F8001F
F8001F
F8001F
F8001F
F8001F
F8001F
F8001F
F8001F
F8001F
F8001F
F8001F
F8001F
F8001F
F8001F
ENDCHAR
STARTCHAR 078
ENCODING 78
SWIDTH 2016 0
DWIDTH 28 0
BBX 24 28 0 6
BITMAP
F8001F
F8001F
F8001F
F8001F
F8001F
F8001F
F8001F
F8001F
FFC01F
FFC01F
FFC01F
FFC01F
F83C1F
F83C1F
F83C1F
F83C1F
F803FF
F803FF
F803FF
F803FF
F8001F
F8001F
F8001F
F8001F
F8001F
F8001F
F8001F
F8001F
ENDCHAR
STARTCHAR 079
ENCODING 79
SWIDTH 2016 0
DWIDTH 28 0
BBX 24 28 0 6
BITMAP
07FFE0
07FFE0
07FFE0
07FFE0
F8001F
F8001F
F8001F
F8001F
F8001F
F8001F
F8001F
F8001F
F8001F
F8001F
F8001F
F8001F
F8001F
F8001F
F8001F
F8001F
F8001F
F8001F
F8001F
F8001F
07FFE0
07FFE0
07FFE0
07FFE0
ENDCHAR
STARTCHAR 080
ENCODING 80
SWIDTH 2016 0
DWIDTH 28 0
BBX 24 28 0 6
BITMAP
FFFFE0
FFFFE0
FFFFE0
FFFFE0
F8001F
F8001F
F8001F
F8001F
F8001F
F8001F
F8001F
F8001F
FFFFE0
FFFFE0
FFFFE0
FFFFE0
F80000
F80000
F80000
F80000
F80000
F80000
F80000
F80000
F80000
F80000
F80000
F80000
ENDCHAR
STARTCHAR 081
ENCODING 81
SWIDTH 2016 0
DWIDTH 28 0
BBX 24 28 0 6
BITMAP
07FFE0
07FFE0
07FFE0
07FFE0
F8001F
F8001F
F8001F
F8001F
F8001F
F8001F
F8001F
F8001F
F8001F
F8001F
F8001F
F8001F
F83C1F
F83C1F
F83C1F
F83C1F
F803E0
F803E0
F803E0
F803E0
07FC1F
07FC1F
07FC1F
07FC1F
ENDCHAR
STARTCHAR 082
ENCODING 82
SWIDTH 2016 0
DWIDTH 28 0
BBX 24 28 0 6
BITMAP
FFFFE0
FFFFE0
FFFFE0
FFFFE0
F8001F
F8001F
F8001F
F8001F
F8001F
F8001F
F8001F
F8001F
FFFFE0
FFFFE0
FFFFE0
FFFFE0
F83C00
F83C00
F83C00
F83C00
F803E0
F803E0
F803E0
F803E0
F8001F
F8001F
F8001F
F8001F
ENDCHAR
STARTCHAR 083
ENCODING 83
SWIDTH 2016 0
DWIDTH 28 0
BBX 24 28 0 6
BITMAP
07FFE0
07FFE0
07FFE0
07FFE0
F8001F
F8001F
F8001F
F8001F
F80000
F80000
F80000
F80000
07FFE0
07FFE0
07FFE0
07FFE0
00001F
00001F
00001F
00001F
F8001F
F8001F
F8001F
F8001F
07FFE0
07FFE0
07FFE0
07FFE0
ENDCHAR
STARTCHAR 084
ENCODING 84
SWIDTH 2016 0
DWIDTH 28 0
BBX 24 28 0 6
BITMAP
FFFFFF
FFFFFF
FFFFFF
FFFFFF
003C00
003C00
003C00
003C00
003C00
003C00
003C00
003C00
003C00
003C00
003C00
003C00
003C00
003C00
003C00
003C00
003C00
003C00
003C00
003C00
003C00
003C00
003C00
003C00
ENDCHAR
STARTCHAR 085
ENCODING 85
SWIDTH 2016 0
DWIDTH 28 0
BBX 24 28 0 6
BITMAP
F8001F
F8001F
F8001F
F8001F
F8001F
F8001F
F8001F
F8001F
F8001F
F8001F
F8001F
F8001F
F8001F
F8001F
F8001F
F8001F
F8001F
F8001F
F8001F
F8001F
F8001F
F8001F
F8001F
F8001F
07FFE0
07FFE0
07FFE0
07FFE0
ENDCHAR
STARTCHAR 086
ENCODING 86
SWIDTH 2016 0
DWIDTH 28 0
BBX 24 28 0 6
BITMAP
F8001F
F8001F
F8001F
F8001F
F8001F
F8001F
F8001F
F8001F
F8001F
F8001F
F8001F
F8001F
F8001F
F8001F
F8001F
F8001F
07C3E0
07C3E0
07C3E0
07C3E0
07C3E0
07C3E0
07C3E0
07C3E0
003C00
003C00
003C00
003C00
ENDCHAR
STARTCHAR 087
ENCODING 87
SWIDTH 2016 0
DWIDTH 28 0
BBX 24 28 0 6
BITMAP
F8001F
F8001F
F8001F
F8001F
F8001F
F8001F
F8001F
F8001F
F8001F
F8001F
F8001F
F8001F
F8001F
F8001F
F8001F
F8001F
F83C1F
F83C1F
F83C1F
F83C1F
F83C1F
F83C1F
F83C1F
F83C1F
07C3E0
07C3E0
07C3E0
07C3E0
ENDCHAR
STARTCHAR 088
ENCODING 88
SWIDTH 2016 0
DWIDTH 28 0
BBX 24 28 0 6
BITMAP
F8001F
F8001F
F8001F
F8001F
F8001F
F8001F
F8001F
F8001F
07C3E0
07C3E0
07C3E0
07C3E0
003C00
003C00
003C00
003C00
07C3E0
07C3E0
07C3E0
07C3E0
F8001F
F8001F
F8001F
F8001F
F8001F
F8001F
F8001F
F8001F
ENDCHAR
STARTCHAR 089
ENCODING 89
SWIDTH 2016 0
DWIDTH 28 0
BBX 24 28 0 6
BITMAP
F8001F
F8001F
F8001F
F8001F
F8001F
F8001F
F8001F
F8001F
07C3E0
07C3E0
07C3E0
07C3E0
003C00
003C00
003C00
003C00
003C00
003C00
003C00
003C00
003C00
003C00
003C00
003C00
003C00
003C00
003C00
003C00
ENDCHAR
STARTCHAR 090
ENCODING 90
SWIDTH 2016 0
DWIDTH 28 0
BBX 24 28 0 6
BITMAP
FFFFFF
FFFFFF
FFFFFF
FFFFFF
00001F
00001F
00001F
00001F
0003E0
0003E0
0003E0
0003E0
003C00
003C00
003C00
003C00
07C000
07C000
07C000
07C000
F80000
F80000
F80000
F80000
FFFFFF
FFFFFF
FFFFFF
FFFFFF
ENDCHAR
STARTCHAR 091
ENCODING 91
SWIDTH 2016 0
DWIDTH 28 0
BBX 14 36 5 2
BITMAP
FFFC
FFFC
FFFC
FFFC
F800
F800
F800
F800
F800
F800
F800
F800
F800
F800
F800
F800
F800
F800
F800
F800
F800
F800
F800
F800
F800
F800
F800
F800
F800
F800
F800
F800
FFFC
FFFC
FFFC
FFFC
ENDCHAR
STARTCHAR 092
ENCODING 92
SWIDTH 2016 0
DWIDTH 28 0
BBX 24 28 0 6
BITMAP
F80000
F80000
F80000
F80000
07C000
07C000
07C000
07C000
07C000
07C000
07C000
07C000
003C00
003C00
003C00
003C00
0003E0
0003E0
0003E0
0003E0
0003E0
0003E0
0003E0
0003E0
00001F
00001F
00001F
00001F
ENDCHAR
STARTCHAR 093
ENCODING 93
SWIDTH 2016 0
DWIDTH 28 0
BBX 14 36 5 2
BITMAP
FFFC
FFFC
FFFC
FFFC
007C
007C
007C
007C
007C
007C
007C
007C
007C
007C
007C
007C
007C
007C
007C
007C
007C
007C
007C
007C
007C
007C
007C
007C
007C
007C
007C
007C
FFFC
FFFC
FFFC
FFFC
ENDCHAR
STARTCHAR 094
ENCODING 94
SWIDTH 2016 0
DWIDTH 28 0
BBX 24 12 0 26
BITMAP
003C00
003C00
003C00
003C00
07C3E0
07C3E0
07C3E0
07C3E0
F8001F
F8001F
F8001F
F8001F
ENDCHAR
STARTCHAR 095
ENCODING 95
SWIDTH 2016 0
DWIDTH 28 0
BBX 24 4 0 -2
BITMAP
FFFFFF
FFFFFF
FFFFFF
FFFFFF
ENDCHAR
STARTCHAR 096
ENCODING 96
SWIDTH 2016 0
DWIDTH 28 0
BBX 14 12 5 26
BITMAP
F800
F800
F800
F800
0780
0780
0780
0780
007C
007C
007C
007C
ENDCHAR
STARTCHAR 097
ENCODING 97
SWIDTH 2016 0
DWIDTH 28 0
BBX 24 20 0 6
BITMAP
07FFE0
07FFE0
07FFE0
07FFE0
00001F
00001F
00001F
00001F
07FFFF
07FFFF
07FFFF
07FFFF
F8001F
F8001F
F8001F
F8001F
07FFFF
07FFFF
07FFFF
07FFFF
ENDCHAR
STARTCHAR 098
ENCODING 98
SWIDTH 2016 0
DWIDTH 28 0
BBX 24 28 0 6
BITMAP
F80000
F80000
F80000
F80000
F80000
F80000
F80000
F80000
FFFFE0
FFFFE0
FFFFE0
FFFFE0
F8001F
F8001F
F8001F
F8001F
F8001F
F8001F
F8001F
F8001F
F8001F
F8001F
F8001F
F8001F
FFFFE0
FFFFE0
FFFFE0
FFFFE0
ENDCHAR
STARTCHAR 099
ENCODING 99
SWIDTH 2016 0
DWIDTH 28 0
BBX 24 20 0 6
BITMAP
07FFE0
07FFE0
07FFE0
07FFE0
F80000
F80000
F80000
F80000
F80000
F80000
F80000
F80000
F8001F
F8001F
F8001F
F8001F
07FFE0
07FFE0
07FFE0
07FFE0
ENDCHAR
STARTCHAR 100
ENCODING 100
SWIDTH 2016 0
DWIDTH 28 0
BBX 24 28 0 6
BITMAP
00001F
00001F
00001F
00001F
00001F
00001F
00001F
00001F
07FFFF
07FFFF
07FFFF
07FFFF
F8001F
F8001F
F8001F
F8001F
F8001F
F8001F
F8001F
F8001F
F8001F
F8001F
F8001F
F8001F
07FFFF
07FFFF
07FFFF
07FFFF
ENDCHAR
STARTCHAR 101
ENCODING 101
SWIDTH 2016 0
DWIDTH 28 0
BBX 24 20 0 6
BITMAP
07FFE0
07FFE0
07FFE0
07FFE0
F8001F
F8001F
F8001F
F8001F
FFFFE0
FFFFE0
FFFFE0
FFFFE0
F80000
F80000
F80000
F80000
07FFE0
07FFE0
07FFE0
07FFE0
ENDCHAR
STARTCHAR 102
ENCODING 102
SWIDTH 2016 0
DWIDTH 28 0
BBX 24 28 0 6
BITMAP
003FE0
003FE0
003FE0
003FE0
07C01F
07C01F
07C01F
07C01F
07C000
07C000
07C000
07C000
FFFC00
FFFC00
FFFC00
FFFC00
07C000
07C000
07C000
07C000
07C000
07C000
07C000
07C000
07C000
07C000
07C000
07C000
ENDCHAR
STARTCHAR 103
ENCODING 103
SWIDTH 2016 0
DWIDTH 28 0
BBX 24 28 0 -2
BITMAP
07FFE0
07FFE0
07FFE0
07FFE0
F8001F
F8001F
F8001F
F8001F
F8001F
F8001F
F8001F
F8001F
F8001F
F8001F
F8001F
F8001F
07FFFF
07FFFF
07FFFF
07FFFF
00001F
00001F
00001F
00001F
07FFE0
07FFE0
07FFE0
07FFE0
ENDCHAR
STARTCHAR 104
ENCODING 104
SWIDTH 2016 0
DWIDTH 28 0
BBX 24 28 0 6
BITMAP
F80000
F80000
F80000
F80000
F80000
F80000
F80000
F80000
FFFFE0
FFFFE0
FFFFE0
FFFFE0
F8001F
F8001F
F8001F
F8001F
F8001F
F8001F
F8001F
F8001F
F8001F
F8001F
F8001F
F8001F
F8001F
F8001F
F8001F
F8001F
ENDCHAR
STARTCHAR 105
ENCODING 105
SWIDTH 2016 0
DWIDTH 28 0
BBX 14 28 5 6
BITMAP
0780
0780
0780
0780
0000
0000
0000
0000
FF80
FF80
FF80
FF80
0780
0780
0780
0780
0780
0780
0780
0780
0780
0780
0780
0780
FFFC
FFFC
FFFC
FFFC
ENDCHAR
STARTCHAR 106
ENCODING 106
SWIDTH 2016 0
DWIDTH 28 0
BBX 19 36 5 -2
BITMAP
0003E0
0003E0
0003E0
0003E0
000000
000000
000000
000000
007FE0
007FE0
007FE0
007FE0
0003E0
0003E0
0003E0
0003E0
0003E0
0003E0
0003E0
0003E0
0003E0
0003E0
0003E0
0003E0
0003E0
0003E0
0003E0
0003E0
F803E0
F803E0
F803E0
F803E0
07FC00
07FC00
07FC00
07FC00
ENDCHAR
STARTCHAR 107
ENCODING 107
SWIDTH 2016 0
DWIDTH 28 0
BBX 24 28 0 6
BITMAP
F80000
F80000
F80000
F80000
F80000
F80000
F80000
F80000
F8001F
F8001F
F8001F
F8001F
F803E0
F803E0
F803E0
F803E0
FFFC00
FFFC00
FFFC00
FFFC00
F803E0
F803E0
F803E0
F803E0
F8001F
F8001F
F8001F
F8001F
ENDCHAR
STARTCHAR 108
ENCODING 108
SWIDTH 2016 0
DWIDTH 28 0
BBX 14 28 5 6
BITMAP
FF80
FF80
FF80
FF80
0780
0780
0780
0780
0780
0780
0780
0780
0780
0780
0780
0780
0780
0780
0780
0780
0780
0780
0780
0780
FFFC
FFFC
FFFC
FFFC
ENDCHAR
STARTCHAR 109
ENCODING 109
SWIDTH 2016 0
DWIDTH 28 0
BBX 24 20 0 6
BITMAP
FFC3E0
FFC3E0
FFC3E0
FFC3E0
F83C1F
F83C1F
F83C1F
F83C1F
F83C1F
F83C1F
F83C1F
F83C1F
F83C1F
F83C1F
F83C1F
F83C1F
F83C1F
F83C1F
F83C1F
F83C1F
ENDCHAR
STARTCHAR 110
ENCODING 110
SWIDTH 2016 0
DWIDTH 28 0
BBX 24 20 0 6
BITMAP
F83FE0
F83FE0
F83FE0
F83FE0
FFC01F
FFC01F
FFC01F
FFC01F
F8001F
F8001F
F8001F
F8001F
F8001F
F8001F
F8001F
F8001F
F8001F
F8001F
F8001F
F8001F
ENDCHAR
STARTCHAR 111
ENCODING 111
SWIDTH 2016 0
DWIDTH 28 0
BBX 24 20 0 6
BITMAP
07FFE0
07FFE0
07FFE0
07FFE0
F8001F
F8001F
F8001F
F8001F
F8001F
F8001F
F8001F
F8001F
F8001F
F8001F
F8001F
F8001F
07FFE0
07FFE0
07FFE0
07FFE0
ENDCHAR
STARTCHAR 112
ENCODING 112
SWIDTH 2016 0
DWIDTH 28 0
BBX 24 28 0 -2
BITMAP
FFFFE0
FFFFE0
FFFFE0
FFFFE0
F8001F
F8001F
F8001F
F8001F
F8001F
F8001F
F8001F
F8001F
F8001F
F8001F
F8001F
F8001F
FFFFE0
FFFFE0
FFFFE0
FFFFE0
F80000
F80000
F80000
F80000
F80000
F80000
F80000
F80000
ENDCHAR
STARTCHAR 113
ENCODING 113
SWIDTH 2016 0
DWIDTH 28 0
BBX 24 28 0 -2
BITMAP
07FFFF
07FFFF
07FFFF
07FFFF
F8001F
F8001F
F8001F
F8001F
F8001F
F8001F
F8001F
F8001F
F8001F
F8001F
F8001F
F8001F
07FFFF
07FFFF
07FFFF
07FFFF
00001F
00001F
00001F
00001F
00001F
00001F
00001F
00001F
ENDCHAR
STARTCHAR 114
ENCODING 114
SWIDTH 2016 0
DWIDTH 28 0
BBX 24 20 0 6
BITMAP
F83FE0
F83FE0
F83FE0
F83FE0
FFC01F
FFC01F
FFC01F
FFC01F
F80000
F80000
F80000
F80000
F80000
F80000
F80000
F80000
F80000
F80000
F80000
F80000
ENDCHAR
STARTCHAR 115
ENCODING 115
SWIDTH 2016 0
DWIDTH 28 0
BBX 24 20 0 6
BITMAP
07FFFF
07FFFF
07FFFF
07FFFF
F80000
F80000
F80000
F80000
07FFE0
07FFE0
07FFE0
07FFE0
00001F
00001F
00001F
00001F
FFFFE0
FFFFE0
FFFFE0
FFFFE0
ENDCHAR
STARTCHAR 116
ENCODING 116
SWIDTH 2016 0
DWIDTH 28 0
BBX 24 28 0 6
BITMAP
003C00
003C00
003C00
003C00
003C00
003C00
003C00
003C00
FFFFFF
FFFFFF
FFFFFF
FFFFFF
003C00
003C00
003C00
003C00
003C00
003C00
003C00
003C00
003C00
003C00
003C00
003C00
0003FF
0003FF
0003FF
0003FF
ENDCHAR
STARTCHAR 117
ENCODING 117
SWIDTH 2016 0
DWIDTH 28 0
BBX 24 20 0 6
BITMAP
F8001F
F8001F
F8001F
F8001F
F8001F
F8001F
F8001F
F8001F
F8001F
F8001F
F8001F
F8001F
F803FF
F803FF
F803FF
F803FF
07FC1F
07FC1F
07FC1F
07FC1F
ENDCHAR
STARTCHAR 118
ENCODING 118
SWIDTH 2016 0
DWIDTH 28 0
BBX 24 20 0 6
BITMAP
F8001F
F8001F
F8001F
F8001F
F8001F
F8001F
F8001F
F8001F
F8001F
F8001F
F8001F
F8001F
07C3E0
07C3E0
07C3E0
07C3E0
003C00
003C00
003C00
003C00
ENDCHAR
STARTCHAR 119
ENCODING 119
SWIDTH 2016 0
DWIDTH 28 0
BBX 24 20 0 6
BITMAP
F8001F
F8001F
F8001F
F8001F
F8001F
F8001F
F8001F
F8001F
F83C1F
F83C1F
F83C1F
F83C1F
F83C1F
F83C1F
F83C1F
F83C1F
07C3E0
07C3E0
07C3E0
07C3E0
ENDCHAR
STARTCHAR 120
ENCODING 120
SWIDTH 2016 0
DWIDTH 28 0
BBX 24 20 0 6
BITMAP
F8001F
F8001F
F8001F
F8001F
07C3E0
07C3E0
07C3E0
07C3E0
003C00
003C00
003C00
003C00
07C3E0
07C3E0
07C3E0
07C3E0
F8001F
F8001F
F8001F
F8001F
ENDCHAR
STARTCHAR 121
ENCODING 121
SWIDTH 2016 0
DWIDTH 28 0
BBX 24 28 0 -2
BITMAP
F8001F
F8001F
F8001F
F8001F
F8001F
F8001F
F8001F
F8001F
F8001F
F8001F
F8001F
F8001F
07C3E0
07C3E0
07C3E0
07C3E0
003C00
003C00
003C00
003C00
07C000
07C000
07C000
07C000
F80000
F80000
F80000
F80000
ENDCHAR
STARTCHAR 122
ENCODING 122
SWIDTH 2016 0
DWIDTH 28 0
BBX 24 20 0 6
BITMAP
FFFFFF
FFFFFF
FFFFFF
FFFFFF
0003E0
0003E0
0003E0
0003E0
003C00
003C00
003C00
003C00
07C000
07C000
07C000
07C000
FFFFFF
FFFFFF
FFFFFF
FFFFFF
ENDCHAR
STARTCHAR 123
ENCODING 123
SWIDTH 2016 0
DWIDTH 28 0
BBX 14 36 5 2
BITMAP
007C
007C
007C
007C
0780
0780
0780
0780
0780
0780
0780
0780
0780
0780
0780
0780
F800
F800
F800
F800
0780
0780
0780
0780
0780
0780
0780
0780
0780
0780
0780
0780
007C
007C
007C
007C
ENDCHAR
STARTCHAR 124
ENCODING 124
SWIDTH 2016 0
DWIDTH 28 0
BBX 4 36 10 2
BITMAP
F0
F0
F0
F0
F0
F0
F0
F0
F0
F0
F0
F0
F0
F0
F0
F0
F0
F0
F0
F0
F0
F0
F0
F0
F0
F0
F0
F0
F0
F0
F0
F0
F0
F0
F0
F0
ENDCHAR
STARTCHAR 125
ENCODING 125
SWIDTH 2016 0
DWIDTH 28 0
BBX 14 36 5 2
BITMAP
F800
F800
F800
F800
0780
0780
0780
0780
0780
0780
0780
0780
0780
0780
0780
0780
007C
007C
007C
007C
0780
0780
0780
0780
0780
0780
0780
0780
0780
0780
0780
0780
F800
F800
F800
F800
ENDCHAR
STARTCHAR 126
ENCODING 126
SWIDTH 2016 0
DWIDTH 28 0
BBX 24 12 0 14
BITMAP
07C01F
07C01F
07C01F
07C01F
F83C1F
F83C1F
F83C1F
F83C1F
F803E0
F803E0
F803E0
F803E0
ENDCHAR
STARTCHAR 127
ENCODING 127
SWIDTH 1656 0
DWIDTH 23 0
BBX 0 0 0 0
BITMAP
ENDCHAR
STARTCHAR 128
ENCODING 128
SWIDTH 1656 0
DWIDTH 23 0
BBX 0 0 0 0
BITMAP
ENDCHAR
STARTCHAR 129
ENCODING 129
SWIDTH 1656 0
DWIDTH 23 0
BBX 0 0 0 0
BITMAP
ENDCHAR
STARTCHAR 130
ENCODING 130
SWIDTH 1656 0
DWIDTH 23 0
BBX 0 0 0 0
BITMAP
ENDCHAR
STARTCHAR 131
ENCODING 131
SWIDTH 1656 0
DWIDTH 23 0
BBX 0 0 0 0
BITMAP
ENDCHAR
STARTCHAR 132
ENCODING 132
SWIDTH 1656 0
DWIDTH 23 0
BBX 0 0 0 0
BITMAP
ENDCHAR
STARTCHAR 133
ENCODING 133
SWIDTH 1656 0
DWIDTH 23 0
BBX 0 0 0 0
BITMAP
ENDCHAR
STARTCHAR 134
ENCODING 134
SWIDTH 1656 0
DWIDTH 23 0
BBX 0 0 0 0
BITMAP
ENDCHAR
STARTCHAR 135
ENCODING 135
SWIDTH 1656 0
DWIDTH 23 0
BBX 0 0 0 0
BITMAP
ENDCHAR
STARTCHAR 136
ENCODING 136
SWIDTH 1656 0
DWIDTH 23 0
BBX 0 0 0 0
BITMAP
ENDCHAR
STARTCHAR 137
ENCODING 137
SWIDTH 1656 0
DWIDTH 23 0
BBX 0 0 0 0
BITMAP
ENDCHAR
STARTCHAR 138
ENCODING 138
SWIDTH 1656 0
DWIDTH 23 0
BBX 0 0 0 0
BITMAP
ENDCHAR
STARTCHAR 139
ENCODING 139
SWIDTH 1656 0
DWIDTH 23 0
BBX 0 0 0 0
BITMAP
ENDCHAR
STARTCHAR 140
ENCODING 140
SWIDTH 1656 0
DWIDTH 23 0
BBX 0 0 0 0
BITMAP
ENDCHAR
STARTCHAR 141
ENCODING 141
SWIDTH 1656 0
DWIDTH 23 0
BBX 0 0 0 0
BITMAP
ENDCHAR
STARTCHAR 142
ENCODING 142
SWIDTH 1656 0
DWIDTH 23 0
BBX 0 0 0 0
BITMAP
ENDCHAR
STARTCHAR 143
ENCODING 143
SWIDTH 1656 0
DWIDTH 23 0
BBX 0 0 0 0
BITMAP
ENDCHAR
STARTCHAR 144
ENCODING 144
SWIDTH 1656 0
DWIDTH 23 0
BBX 0 0 0 0
BITMAP
ENDCHAR
STARTCHAR 145
ENCODING 145
SWIDTH 1656 0
DWIDTH 23 0
BBX 0 0 0 0
BITMAP
ENDCHAR
STARTCHAR 146
ENCODING 146
SWIDTH 1656 0
DWIDTH 23 0
BBX 0 0 0 0
BITMAP
ENDCHAR
STARTCHAR 147
ENCODING 147
SWIDTH 1656 0
DWIDTH 23 0
BBX 0 0 0 0
BITMAP
ENDCHAR
STARTCHAR 148
ENCODING 148
SWIDTH 1656 0
DWIDTH 23 0
BBX 0 0 0 0
BITMAP
ENDCHAR
STARTCHAR 149
ENCODING 149
SWIDTH 1656 0
DWIDTH 23 0
BBX 0 0 0 0
BITMAP
ENDCHAR
STARTCHAR 150
ENCODING 150
SWIDTH 1656 0
DWIDTH 23 0
BBX 0 0 0 0
BITMAP
ENDCHAR
STARTCHAR 151
ENCODING 151
SWIDTH 1656 0
DWIDTH 23 0
BBX 0 0 0 0
BITMAP
ENDCHAR
STARTCHAR 152
ENCODING 152
SWIDTH 1656 0
DWIDTH 23 0
BBX 0 0 0 0
BITMAP
ENDCHAR
STARTCHAR 153
ENCODING 153
SWIDTH 1656 0
DWIDTH 23 0
BBX 0 0 0 0
BITMAP
ENDCHAR
STARTCHAR 154
ENCODING 154
SWIDTH 1656 0
DWIDTH 23 0
BBX 0 0 0 0
BITMAP
ENDCHAR
STARTCHAR 155
ENCODING 155
SWIDTH 1656 0
DWIDTH 23 0
BBX 0 0 0 0
BITMAP
ENDCHAR
STARTCHAR 156
ENCODING 156
SWIDTH 1656 0
DWIDTH 23 0
BBX 0 0 0 0
BITMAP
ENDCHAR
STARTCHAR 157
ENCODING 157
SWIDTH 1656 0
DWIDTH 23 0
BBX 0 0 0 0
BITMAP
ENDCHAR
STARTCHAR 158
ENCODING 158
SWIDTH 1656 0
DWIDTH 23 0
BBX 0 0 0 0
BITMAP
ENDCHAR
STARTCHAR 159
ENCODING 159
SWIDTH 1656 0
DWIDTH 23 0
BBX 0 0 0 0
BITMAP
ENDCHAR
STARTCHAR 160
ENCODING 160
SWIDTH 2016 0
DWIDTH 28 0
BBX 0 0 0 0
BITMAP
ENDCHAR
STARTCHAR 161
ENCODING 161
SWIDTH 2016 0
DWIDTH 28 0
BBX 4 28 10 6
BITMAP
F0
F0
F0
F0
00
00
00
00
F0
F0
F0
F0
F0
F0
F0
F0
F0
F0
F0
F0
F0
F0
F0
F0
F0
F0
F0
F0
ENDCHAR
STARTCHAR 162
ENCODING 162
SWIDTH 2016 0
DWIDTH 28 0
BBX 24 28 0 2
BITMAP
003C00
003C00
003C00
003C00
07FFE0
07FFE0
07FFE0
07FFE0
F83C1F
F83C1F
F83C1F
F83C1F
F83C00
F83C00
F83C00
F83C00
F83C1F
F83C1F
F83C1F
F83C1F
07FFE0
07FFE0
07FFE0
07FFE0
003C00
003C00
003C00
003C00
ENDCHAR
STARTCHAR 163
ENCODING 163
SWIDTH 2016 0
DWIDTH 28 0
BBX 24 28 0 6
BITMAP
003FE0
003FE0
003FE0
003FE0
07C01F
07C01F
07C01F
07C01F
07C000
07C000
07C000
07C000
FFFC00
FFFC00
FFFC00
FFFC00
07C000
07C000
07C000
07C000
07C01F
07C01F
07C01F
07C01F
F83FE0
F83FE0
F83FE0
F83FE0
ENDCHAR
STARTCHAR 164
ENCODING 164
SWIDTH 2016 0
DWIDTH 28 0
BBX 24 20 0 6
BITMAP
F83C1F
F83C1F
F83C1F
F83C1F
07C3E0
07C3E0
07C3E0
07C3E0
F8001F
F8001F
F8001F
F8001F
07C3E0
07C3E0
07C3E0
07C3E0
F83C1F
F83C1F
F83C1F
F83C1F
ENDCHAR
STARTCHAR 165
ENCODING 165
SWIDTH 2016 0
DWIDTH 28 0
BBX 24 28 0 6
BITMAP
F8001F
F8001F
F8001F
F8001F
07C3E0
07C3E0
07C3E0
07C3E0
FFFFFF
FFFFFF
FFFFFF
FFFFFF
003C00
003C00
003C00
003C00
FFFFFF
FFFFFF
FFFFFF
FFFFFF
003C00
003C00
003C00
003C00
003C00
003C00
003C00
003C00
ENDCHAR
STARTCHAR 166
ENCODING 166
SWIDTH 2016 0
DWIDTH 28 0
BBX 4 28 10 6
BITMAP
F0
F0
F0
F0
F0
F0
F0
F0
F0
F0
F0
F0
00
00
00
00
F0
F0
F0
F0
F0
F0
F0
F0
F0
F0
F0
F0
ENDCHAR
STARTCHAR 167
ENCODING 167
SWIDTH 2016 0
DWIDTH 28 0
BBX 19 32 5 6
BITMAP
07FFE0
07FFE0
07FFE0
07FFE0
F80000
F80000
F80000
F80000
07FC00
07FC00
07FC00
07FC00
F803E0
F803E0
F803E0
F803E0
F803E0
F803E0
F803E0
F803E0
07FC00
07FC00
07FC00
07FC00
0003E0
0003E0
0003E0
0003E0
FFFC00
FFFC00
FFFC00
FFFC00
ENDCHAR
STARTCHAR 168
ENCODING 168
SWIDTH 2016 0
DWIDTH 28 0
BBX 14 4 5 34
BITMAP
F87C
F87C
F87C
F87C
ENDCHAR
STARTCHAR 169
ENCODING 169
SWIDTH 2016 0
DWIDTH 28 0
BBX 28 28 0 6
BITMAP
07FFFF00
07FFFF00
07FFFF00
07FFFF00
F80000F0
F80000F0
F80000F0
F80000F0
F83FE0F0
F83FE0F0
F83FE0F0
F83FE0F0
F83C00F0
F83C00F0
F83C00F0
F83C00F0
F83FE0F0
F83FE0F0
F83FE0F0
F83FE0F0
F80000F0
F80000F0
F80000F0
F80000F0
07FFFF00
07FFFF00
07FFFF00
07FFFF00
ENDCHAR
STARTCHAR 170
ENCODING 170
SWIDTH 2016 0
DWIDTH 28 0
BBX 14 20 5 22
BITMAP
07FC
07FC
07FC
07FC
F87C
F87C
F87C
F87C
07FC
07FC
07FC
07FC
0000
0000
0000
0000
FFFC
FFFC
FFFC
FFFC
ENDCHAR
STARTCHAR 171
ENCODING 171
SWIDTH 2016 0
DWIDTH 28 0
BBX 24 20 0 6
BITMAP
003C1F
003C1F
003C1F
003C1F
07C3E0
07C3E0
07C3E0
07C3E0
F83C00
F83C00
F83C00
F83C00
07C3E0
07C3E0
07C3E0
07C3E0
003C1F
003C1F
003C1F
003C1F
ENDCHAR
STARTCHAR 172
ENCODING 172
SWIDTH 2016 0
DWIDTH 28 0
BBX 24 12 0 10
BITMAP
FFFFFF
FFFFFF
FFFFFF
FFFFFF
00001F
00001F
00001F
00001F
00001F
00001F
00001F
00001F
ENDCHAR
STARTCHAR 173
ENCODING 173
SWIDTH 2016 0
DWIDTH 28 0
BBX 14 4 5 18
BITMAP
FFFC
FFFC
FFFC
FFFC
ENDCHAR
STARTCHAR 174
ENCODING 174
SWIDTH 2016 0
DWIDTH 28 0
BBX 28 28 0 6
BITMAP
07FFFF00
07FFFF00
07FFFF00
07FFFF00
F80000F0
F80000F0
F80000F0
F80000F0
F83FE0F0
F83FE0F0
F83FE0F0
F83FE0F0
F83C00F0
F83C00F0
F83C00F0
F83C00F0
F83C00F0
F83C00F0
F83C00F0
F83C00F0
F80000F0
F80000F0
F80000F0
F80000F0
07FFFF00
07FFFF00
07FFFF00
07FFFF00
ENDCHAR
STARTCHAR 175
ENCODING 175
SWIDTH 2016 0
DWIDTH 28 0
BBX 24 4 0 34
BITMAP
FFFFFF
FFFFFF
FFFFFF
FFFFFF
ENDCHAR
STARTCHAR 176
ENCODING 176
SWIDTH 2016 0
DWIDTH 28 0
BBX 19 16 5 26
BITMAP
07FC00
07FC00
07FC00
07FC00
F803E0
F803E0
F803E0
F803E0
F803E0
F803E0
F803E0
F803E0
07FC00
07FC00
07FC00
07FC00
ENDCHAR
STARTCHAR 177
ENCODING 177
SWIDTH 2016 0
DWIDTH 28 0
BBX 24 28 0 6
BITMAP
003C00
003C00
003C00
003C00
003C00
003C00
003C00
003C00
FFFFFF
FFFFFF
FFFFFF
FFFFFF
003C00
003C00
003C00
003C00
003C00
003C00
003C00
003C00
000000
000000
000000
000000
FFFFFF
FFFFFF
FFFFFF
FFFFFF
ENDCHAR
STARTCHAR 178
ENCODING 178
SWIDTH 2016 0
DWIDTH 28 0
BBX 14 20 5 22
BITMAP
0780
0780
0780
0780
F87C
F87C
F87C
F87C
007C
007C
007C
007C
0780
0780
0780
0780
FFFC
FFFC
FFFC
FFFC
ENDCHAR
STARTCHAR 179
ENCODING 179
SWIDTH 2016 0
DWIDTH 28 0
BBX 14 20 5 22
BITMAP
FF80
FF80
FF80
FF80
007C
007C
007C
007C
0780
0780
0780
0780
007C
007C
007C
007C
FF80
FF80
FF80
FF80
ENDCHAR
STARTCHAR 180
ENCODING 180
SWIDTH 2016 0
DWIDTH 28 0
BBX 14 12 5 26
BITMAP
007C
007C
007C
007C
0780
0780
0780
0780
F800
F800
F800
F800
ENDCHAR
STARTCHAR 181
ENCODING 181
SWIDTH 2016 0
DWIDTH 28 0
BBX 24 28 0 -2
BITMAP
F8001F
F8001F
F8001F
F8001F
F8001F
F8001F
F8001F
F8001F
F8001F
F8001F
F8001F
F8001F
F803FF
F803FF
F803FF
F803FF
FFFC1F
FFFC1F
FFFC1F
FFFC1F
F80000
F80000
F80000
F80000
F80000
F80000
F80000
F80000
ENDCHAR
STARTCHAR 182
ENCODING 182
SWIDTH 2016 0
DWIDTH 28 0
BBX 24 32 0 6
BITMAP
07FFFF
07FFFF
07FFFF
07FFFF
FFFC1F
FFFC1F
FFFC1F
FFFC1F
FFFC1F
FFFC1F
FFFC1F
FFFC1F
FFFC1F
FFFC1F
FFFC1F
FFFC1F
07FC1F
07FC1F
07FC1F
07FC1F
003C1F
003C1F
003C1F
003C1F
003C1F
003C1F
003C1F
003C1F
003C1F
003C1F
003C1F
003C1F
ENDCHAR
STARTCHAR 183
ENCODING 183
SWIDTH 2016 0
DWIDTH 28 0
BBX 9 8 10 18
BITMAP
FF80
FF80
FF80
FF80
FF80
FF80
FF80
FF80
ENDCHAR
STARTCHAR 184
ENCODING 184
SWIDTH 2016 0
DWIDTH 28 0
BBX 14 8 5 -2
BITMAP
007C
007C
007C
007C
FF80
FF80
FF80
FF80
ENDCHAR
STARTCHAR 185
ENCODING 185
SWIDTH 2016 0
DWIDTH 28 0
BBX 14 20 5 22
BITMAP
0780
0780
0780
0780
FF80
FF80
FF80
FF80
0780
0780
0780
0780
0780
0780
0780
0780
FFFC
FFFC
FFFC
FFFC
ENDCHAR
STARTCHAR 186
ENCODING 186
SWIDTH 2016 0
DWIDTH 28 0
BBX 14 20 5 26
BITMAP
0780
0780
0780
0780
F87C
F87C
F87C
F87C
0780
0780
0780
0780
0000
0000
0000
0000
FFFC
FFFC
FFFC
FFFC
ENDCHAR
STARTCHAR 187
ENCODING 187
SWIDTH 2016 0
DWIDTH 28 0
BBX 24 20 0 6
BITMAP
F83C00
F83C00
F83C00
F83C00
07C3E0
07C3E0
07C3E0
07C3E0
003C1F
003C1F
003C1F
003C1F
07C3E0
07C3E0
07C3E0
07C3E0
F83C00
F83C00
F83C00
F83C00
ENDCHAR
STARTCHAR 188
ENCODING 188
SWIDTH 2016 0
DWIDTH 28 0
BBX 24 40 0 6
BITMAP
07C000
07C000
07C000
07C000
FFC000
FFC000
FFC000
FFC000
07C01F
07C01F
07C01F
07C01F
07C3E0
07C3E0
07C3E0
07C3E0
07FC00
07FC00
07FC00
07FC00
07C3E0
07C3E0
07C3E0
07C3E0
F83FE0
F83FE0
F83FE0
F83FE0
07C3E0
07C3E0
07C3E0
07C3E0
07FFFF
07FFFF
07FFFF
07FFFF
0003E0
0003E0
0003E0
0003E0
ENDCHAR
STARTCHAR 189
ENCODING 189
SWIDTH 2016 0
DWIDTH 28 0
BBX 24 40 0 6
BITMAP
07C000
07C000
07C000
07C000
FFC000
FFC000
FFC000
FFC000
07C01F
07C01F
07C01F
07C01F
07C3E0
07C3E0
07C3E0
07C3E0
07FC00
07FC00
07FC00
07FC00
07C3E0
07C3E0
07C3E0
07C3E0
F83C1F
F83C1F
F83C1F
F83C1F
00001F
00001F
00001F
00001F
0003E0
0003E0
0003E0
0003E0
003FFF
003FFF
003FFF
003FFF
ENDCHAR
STARTCHAR 190
ENCODING 190
SWIDTH 2016 0
DWIDTH 28 0
BBX 24 40 0 6
BITMAP
FFC000
FFC000
FFC000
FFC000
003C00
003C00
003C00
003C00
07C01F
07C01F
07C01F
07C01F
003FE0
003FE0
003FE0
003FE0
FFFC00
FFFC00
FFFC00
FFFC00
07C3E0
07C3E0
07C3E0
07C3E0
F83FE0
F83FE0
F83FE0
F83FE0
07C3E0
07C3E0
07C3E0
07C3E0
07FFFF
07FFFF
07FFFF
07FFFF
0003E0
0003E0
0003E0
0003E0
ENDCHAR
STARTCHAR 191
ENCODING 191
SWIDTH 2016 0
DWIDTH 28 0
BBX 24 28 0 6
BITMAP
003C00
003C00
003C00
003C00
000000
000000
000000
000000
003C00
003C00
003C00
003C00
003C00
003C00
003C00
003C00
07C000
07C000
07C000
07C000
F8001F
F8001F
F8001F
F8001F
07FFE0
07FFE0
07FFE0
07FFE0
ENDCHAR
STARTCHAR 192
ENCODING 192
SWIDTH 2016 0
DWIDTH 28 0
BBX 24 40 0 6
BITMAP
07C000
07C000
07C000
07C000
003C00
003C00
003C00
003C00
000000
000000
000000
000000
07FFE0
07FFE0
07FFE0
07FFE0
F8001F
F8001F
F8001F
F8001F
F8001F
F8001F
F8001F
F8001F
FFFFFF
FFFFFF
FFFFFF
FFFFFF
F8001F
F8001F
F8001F
F8001F
F8001F
F8001F
F8001F
F8001F
F8001F
F8001F
F8001F
F8001F
ENDCHAR
STARTCHAR 193
ENCODING 193
SWIDTH 2016 0
DWIDTH 28 0
BBX 24 40 0 6
BITMAP
0003E0
0003E0
0003E0
0003E0
003C00
003C00
003C00
003C00
000000
000000
000000
000000
07FFE0
07FFE0
07FFE0
07FFE0
F8001F
F8001F
F8001F
F8001F
F8001F
F8001F
F8001F
F8001F
FFFFFF
FFFFFF
FFFFFF
FFFFFF
F8001F
F8001F
F8001F
F8001F
F8001F
F8001F
F8001F
F8001F
F8001F
F8001F
F8001F
F8001F
ENDCHAR
STARTCHAR 194
ENCODING 194
SWIDTH 2016 0
DWIDTH 28 0
BBX 24 40 0 6
BITMAP
003C00
003C00
003C00
003C00
07C3E0
07C3E0
07C3E0
07C3E0
000000
000000
000000
000000
07FFE0
07FFE0
07FFE0
07FFE0
F8001F
F8001F
F8001F
F8001F
F8001F
F8001F
F8001F
F8001F
FFFFFF
FFFFFF
FFFFFF
FFFFFF
F8001F
F8001F
F8001F
F8001F
F8001F
F8001F
F8001F
F8001F
F8001F
F8001F
F8001F
F8001F
ENDCHAR
STARTCHAR 195
ENCODING 195
SWIDTH 2016 0
DWIDTH 28 0
BBX 24 40 0 6
BITMAP
07FC1F
07FC1F
07FC1F
07FC1F
F83FE0
F83FE0
F83FE0
F83FE0
000000
000000
000000
000000
07FFE0
07FFE0
07FFE0
07FFE0
F8001F
F8001F
F8001F
F8001F
F8001F
F8001F
F8001F
F8001F
FFFFFF
FFFFFF
FFFFFF
FFFFFF
F8001F
F8001F
F8001F
F8001F
F8001F
F8001F
F8001F
F8001F
F8001F
F8001F
F8001F
F8001F
ENDCHAR
STARTCHAR 196
ENCODING 196
SWIDTH 2016 0
DWIDTH 28 0
BBX 24 36 0 6
BITMAP
07C3E0
07C3E0
07C3E0
07C3E0
000000
000000
000000
000000
07FFE0
07FFE0
07FFE0
07FFE0
F8001F
F8001F
F8001F
F8001F
F8001F
F8001F
F8001F
F8001F
FFFFFF
FFFFFF
FFFFFF
FFFFFF
F8001F
F8001F
F8001F
F8001F
F8001F
F8001F
F8001F
F8001F
F8001F
F8001F
F8001F
F8001F
ENDCHAR
STARTCHAR 197
ENCODING 197
SWIDTH 2016 0
DWIDTH 28 0
BBX 24 40 0 6
BITMAP
003C00
003C00
003C00
003C00
07C3E0
07C3E0
07C3E0
07C3E0
003C00
003C00
003C00
003C00
07FFE0
07FFE0
07FFE0
07FFE0
F8001F
F8001F
F8001F
F8001F
F8001F
F8001F
F8001F
F8001F
FFFFFF
FFFFFF
FFFFFF
FFFFFF
F8001F
F8001F
F8001F
F8001F
F8001F
F8001F
F8001F
F8001F
F8001F
F8001F
F8001F
F8001F
ENDCHAR
STARTCHAR 198
ENCODING 198
SWIDTH 2016 0
DWIDTH 28 0
BBX 24 28 0 6
BITMAP
07FFFF
07FFFF
07FFFF
07FFFF
F83C00
F83C00
F83C00
F83C00
F83C00
F83C00
F83C00
F83C00
FFFFE0
FFFFE0
FFFFE0
FFFFE0
F83C00
F83C00
F83C00
F83C00
F83C00
F83C00
F83C00
F83C00
F83FFF
F83FFF
F83FFF
F83FFF
ENDCHAR
STARTCHAR 199
ENCODING 199
SWIDTH 2016 0
DWIDTH 28 0
BBX 24 36 0 -2
BITMAP
07FFE0
07FFE0
07FFE0
07FFE0
F8001F
F8001F
F8001F
F8001F
F80000
F80000
F80000
F80000
F80000
F80000
F80000
F80000
F80000
F80000
F80000
F80000
F8001F
F8001F
F8001F
F8001F
07FFE0
07FFE0
07FFE0
07FFE0
0003E0
0003E0
0003E0
0003E0
07FC00
07FC00
07FC00
07FC00
ENDCHAR
STARTCHAR 200
ENCODING 200
SWIDTH 2016 0
DWIDTH 28 0
BBX 24 40 0 6
BITMAP
07C000
07C000
07C000
07C000
003C00
003C00
003C00
003C00
000000
000000
000000
000000
FFFFFF
FFFFFF
FFFFFF
FFFFFF
F80000
F80000
F80000
F80000
F80000
F80000
F80000
F80000
FFFFE0
FFFFE0
FFFFE0
FFFFE0
F80000
F80000
F80000
F80000
F80000
F80000
F80000
F80000
FFFFFF
FFFFFF
FFFFFF
FFFFFF
ENDCHAR
STARTCHAR 201
ENCODING 201
SWIDTH 2016 0
DWIDTH 28 0
BBX 24 40 0 6
BITMAP
0003E0
0003E0
0003E0
0003E0
003C00
003C00
003C00
003C00
000000
000000
000000
000000
FFFFFF
FFFFFF
FFFFFF
FFFFFF
F80000
F80000
F80000
F80000
F80000
F80000
F80000
F80000
FFFFE0
FFFFE0
FFFFE0
FFFFE0
F80000
F80000
F80000
F80000
F80000
F80000
F80000
F80000
FFFFFF
FFFFFF
FFFFFF
FFFFFF
ENDCHAR
STARTCHAR 202
ENCODING 202
SWIDTH 2016 0
DWIDTH 28 0
BBX 24 40 0 6
BITMAP
003C00
003C00
003C00
003C00
07C3E0
07C3E0
07C3E0
07C3E0
000000
000000
000000
000000
FFFFFF
FFFFFF
FFFFFF
FFFFFF
F80000
F80000
F80000
F80000
F80000
F80000
F80000
F80000
FFFFE0
FFFFE0
FFFFE0
FFFFE0
F80000
F80000
F80000
F80000
F80000
F80000
F80000
F80000
FFFFFF
FFFFFF
FFFFFF
FFFFFF
ENDCHAR
STARTCHAR 203
ENCODING 203
SWIDTH 2016 0
DWIDTH 28 0
BBX 24 36 0 6
BITMAP
07C3E0
07C3E0
07C3E0
07C3E0
000000
000000
000000
000000
FFFFFF
FFFFFF
FFFFFF
FFFFFF
F80000
F80000
F80000
F80000
F80000
F80000
F80000
F80000
FFFFE0
FFFFE0
FFFFE0
FFFFE0
F80000
F80000
F80000
F80000
F80000
F80000
F80000
F80000
FFFFFF
FFFFFF
FFFFFF
FFFFFF
ENDCHAR
STARTCHAR 204
ENCODING 204
SWIDTH 2016 0
DWIDTH 28 0
BBX 14 40 5 6
BITMAP
F800
F800
F800
F800
0780
0780
0780
0780
0000
0000
0000
0000
FFFC
FFFC
FFFC
FFFC
0780
0780
0780
0780
0780
0780
0780
0780
0780
0780
0780
0780
0780
0780
0780
0780
0780
0780
0780
0780
FFFC
FFFC
FFFC
FFFC
ENDCHAR
STARTCHAR 205
ENCODING 205
SWIDTH 2016 0
DWIDTH 28 0
BBX 14 40 5 6
BITMAP
007C
007C
007C
007C
0780
0780
0780
0780
0000
0000
0000
0000
FFFC
FFFC
FFFC
FFFC
0780
0780
0780
0780
0780
0780
0780
0780
0780
0780
0780
0780
0780
0780
0780
0780
0780
0780
0780
0780
FFFC
FFFC
FFFC
FFFC
ENDCHAR
STARTCHAR 206
ENCODING 206
SWIDTH 2016 0
DWIDTH 28 0
BBX 14 40 5 6
BITMAP
0780
0780
0780
0780
F87C
F87C
F87C
F87C
0000
0000
0000
0000
FFFC
FFFC
FFFC
FFFC
0780
0780
0780
0780
0780
0780
0780
0780
0780
0780
0780
0780
0780
0780
0780
0780
0780
0780
0780
0780
FFFC
FFFC
FFFC
FFFC
ENDCHAR
STARTCHAR 207
ENCODING 207
SWIDTH 2016 0
DWIDTH 28 0
BBX 14 36 5 6
BITMAP
F87C
F87C
F87C
F87C
0000
0000
0000
0000
FFFC
FFFC
FFFC
FFFC
0780
0780
0780
0780
0780
0780
0780
0780
0780
0780
0780
0780
0780
0780
0780
0780
0780
0780
0780
0780
FFFC
FFFC
FFFC
FFFC
ENDCHAR
STARTCHAR 208
ENCODING 208
SWIDTH 2016 0
DWIDTH 28 0
BBX 24 28 0 6
BITMAP
07FFE0
07FFE0
07FFE0
07FFE0
07C01F
07C01F
07C01F
07C01F
07C01F
07C01F
07C01F
07C01F
FFFC1F
FFFC1F
FFFC1F
FFFC1F
07C01F
07C01F
07C01F
07C01F
07C01F
07C01F
07C01F
07C01F
07FFE0
07FFE0
07FFE0
07FFE0
ENDCHAR
STARTCHAR 209
ENCODING 209
SWIDTH 2016 0
DWIDTH 28 0
BBX 24 40 0 6
BITMAP
07FC1F
07FC1F
07FC1F
07FC1F
F83FE0
F83FE0
F83FE0
F83FE0
000000
000000
000000
000000
F8001F
F8001F
F8001F
F8001F
F8001F
F8001F
F8001F
F8001F
FFC01F
FFC01F
FFC01F
FFC01F
F83C1F
F83C1F
F83C1F
F83C1F
F803FF
F803FF
F803FF
F803FF
F8001F
F8001F
F8001F
F8001F
F8001F
F8001F
F8001F
F8001F
ENDCHAR
STARTCHAR 210
ENCODING 210
SWIDTH 2016 0
DWIDTH 28 0
BBX 24 40 0 6
BITMAP
07C000
07C000
07C000
07C000
003C00
003C00
003C00
003C00
000000
000000
000000
000000
07FFE0
07FFE0
07FFE0
07FFE0
F8001F
F8001F
F8001F
F8001F
F8001F
F8001F
F8001F
F8001F
F8001F
F8001F
F8001F
F8001F
F8001F
F8001F
F8001F
F8001F
F8001F
F8001F
F8001F
F8001F
07FFE0
07FFE0
07FFE0
07FFE0
ENDCHAR
STARTCHAR 211
ENCODING 211
SWIDTH 2016 0
DWIDTH 28 0
BBX 24 40 0 6
BITMAP
0003E0
0003E0
0003E0
0003E0
003C00
003C00
003C00
003C00
000000
000000
000000
000000
07FFE0
07FFE0
07FFE0
07FFE0
F8001F
F8001F
F8001F
F8001F
F8001F
F8001F
F8001F
F8001F
F8001F
F8001F
F8001F
F8001F
F8001F
F8001F
F8001F
F8001F
F8001F
F8001F
F8001F
F8001F
07FFE0
07FFE0
07FFE0
07FFE0
ENDCHAR
STARTCHAR 212
ENCODING 212
SWIDTH 2016 0
DWIDTH 28 0
BBX 24 40 0 6
BITMAP
003C00
003C00
003C00
003C00
07C3E0
07C3E0
07C3E0
07C3E0
000000
000000
000000
000000
07FFE0
07FFE0
07FFE0
07FFE0
F8001F
F8001F
F8001F
F8001F
F8001F
F8001F
F8001F
F8001F
F8001F
F8001F
F8001F
F8001F
F8001F
F8001F
F8001F
F8001F
F8001F
F8001F
F8001F
F8001F
07FFE0
07FFE0
07FFE0
07FFE0
ENDCHAR
STARTCHAR 213
ENCODING 213
SWIDTH 2016 0
DWIDTH 28 0
BBX 24 40 0 6
BITMAP
07FC1F
07FC1F
07FC1F
07FC1F
F83FE0
F83FE0
F83FE0
F83FE0
000000
000000
000000
000000
07FFE0
07FFE0
07FFE0
07FFE0
F8001F
F8001F
F8001F
F8001F
F8001F
F8001F
F8001F
F8001F
F8001F
F8001F
F8001F
F8001F
F8001F
F8001F
F8001F
F8001F
F8001F
F8001F
F8001F
F8001F
07FFE0
07FFE0
07FFE0
07FFE0
ENDCHAR
STARTCHAR 214
ENCODING 214
SWIDTH 2016 0
DWIDTH 28 0
BBX 24 36 0 6
BITMAP
07C3E0
07C3E0
07C3E0
07C3E0
000000
000000
000000
000000
07FFE0
07FFE0
07FFE0
07FFE0
F8001F
F8001F
F8001F
F8001F
F8001F
F8001F
F8001F
F8001F
F8001F
F8001F
F8001F
F8001F
F8001F
F8001F
F8001F
F8001F
F8001F
F8001F
F8001F
F8001F
07FFE0
07FFE0
07FFE0
07FFE0
ENDCHAR
STARTCHAR 215
ENCODING 215
SWIDTH 2016 0
DWIDTH 28 0
BBX 24 20 0 10
BITMAP
F8001F
F8001F
F8001F
F8001F
07C3E0
07C3E0
07C3E0
07C3E0
003C00
003C00
003C00
003C00
07C3E0
07C3E0
07C3E0
07C3E0
F8001F
F8001F
F8001F
F8001F
ENDCHAR
STARTCHAR 216
ENCODING 216
SWIDTH 2016 0
DWIDTH 28 0
BBX 24 36 0 2
BITMAP
00001F
00001F
00001F
00001F
07FFE0
07FFE0
07FFE0
07FFE0
F803FF
F803FF
F803FF
F803FF
F83C1F
F83C1F
F83C1F
F83C1F
F83C1F
F83C1F
F83C1F
F83C1F
F83C1F
F83C1F
F83C1F
F83C1F
FFC01F
FFC01F
FFC01F
FFC01F
07FFE0
07FFE0
07FFE0
07FFE0
F80000
F80000
F80000
F80000
ENDCHAR
STARTCHAR 217
ENCODING 217
SWIDTH 2016 0
DWIDTH 28 0
BBX 24 40 0 6
BITMAP
07C000
07C000
07C000
07C000
003C00
003C00
003C00
003C00
000000
000000
000000
000000
F8001F
F8001F
F8001F
F8001F
F8001F
F8001F
F8001F
F8001F
F8001F
F8001F
F8001F
F8001F
F8001F
F8001F
F8001F
F8001F
F8001F
F8001F
F8001F
F8001F
F8001F
F8001F
F8001F
F8001F
07FFE0
07FFE0
07FFE0
07FFE0
ENDCHAR
STARTCHAR 218
ENCODING 218
SWIDTH 2016 0
DWIDTH 28 0
BBX 24 40 0 6
BITMAP
0003E0
0003E0
0003E0
0003E0
003C00
003C00
003C00
003C00
000000
000000
000000
000000
F8001F
F8001F
F8001F
F8001F
F8001F
F8001F
F8001F
F8001F
F8001F
F8001F
F8001F
F8001F
F8001F
F8001F
F8001F
F8001F
F8001F
F8001F
F8001F
F8001F
F8001F
F8001F
F8001F
F8001F
07FFE0
07FFE0
07FFE0
07FFE0
ENDCHAR
STARTCHAR 219
ENCODING 219
SWIDTH 2016 0
DWIDTH 28 0
BBX 24 40 0 6
BITMAP
003C00
003C00
003C00
003C00
07C3E0
07C3E0
07C3E0
07C3E0
000000
000000
000000
000000
F8001F
F8001F
F8001F
F8001F
F8001F
F8001F
F8001F
F8001F
F8001F
F8001F
F8001F
F8001F
F8001F
F8001F
F8001F
F8001F
F8001F
F8001F
F8001F
F8001F
F8001F
F8001F
F8001F
F8001F
07FFE0
07FFE0
07FFE0
07FFE0
ENDCHAR
STARTCHAR 220
ENCODING 220
SWIDTH 2016 0
DWIDTH 28 0
BBX 24 36 0 6
BITMAP
07C3E0
07C3E0
07C3E0
07C3E0
000000
000000
000000
000000
F8001F
F8001F
F8001F
F8001F
F8001F
F8001F
F8001F
F8001F
F8001F
F8001F
F8001F
F8001F
F8001F
F8001F
F8001F
F8001F
F8001F
F8001F
F8001F
F8001F
F8001F
F8001F
F8001F
F8001F
07FFE0
07FFE0
07FFE0
07FFE0
ENDCHAR
STARTCHAR 221
ENCODING 221
SWIDTH 2016 0
DWIDTH 28 0
BBX 24 40 0 6
BITMAP
0003E0
0003E0
0003E0
0003E0
003C00
003C00
003C00
003C00
000000
000000
000000
000000
F8001F
F8001F
F8001F
F8001F
F8001F
F8001F
F8001F
F8001F
07C3E0
07C3E0
07C3E0
07C3E0
003C00
003C00
003C00
003C00
003C00
003C00
003C00
003C00
003C00
003C00
003C00
003C00
003C00
003C00
003C00
003C00
ENDCHAR
STARTCHAR 222
ENCODING 222
SWIDTH 2016 0
DWIDTH 28 0
BBX 19 28 5 6
BITMAP
F80000
F80000
F80000
F80000
FFFC00
FFFC00
FFFC00
FFFC00
F803E0
F803E0
F803E0
F803E0
F803E0
F803E0
F803E0
F803E0
F803E0
F803E0
F803E0
F803E0
FFFC00
FFFC00
FFFC00
FFFC00
F80000
F80000
F80000
F80000
ENDCHAR
STARTCHAR 223
ENCODING 223
SWIDTH 2016 0
DWIDTH 28 0
BBX 24 28 0 6
BITMAP
07FFE0
07FFE0
07FFE0
07FFE0
F8001F
F8001F
F8001F
F8001F
F803E0
F803E0
F803E0
F803E0
F83C00
F83C00
F83C00
F83C00
F803E0
F803E0
F803E0
F803E0
F8001F
F8001F
F8001F
F8001F
F83FE0
F83FE0
F83FE0
F83FE0
ENDCHAR
STARTCHAR 224
ENCODING 224
SWIDTH 2016 0
DWIDTH 28 0
BBX 24 32 0 6
BITMAP
07C000
07C000
07C000
07C000
003C00
003C00
003C00
003C00
000000
000000
000000
000000
07FFE0
07FFE0
07FFE0
07FFE0
00001F
00001F
00001F
00001F
07FFFF
07FFFF
07FFFF
07FFFF
F8001F
F8001F
F8001F
F8001F
07FFFF
07FFFF
07FFFF
07FFFF
ENDCHAR
STARTCHAR 225
ENCODING 225
SWIDTH 2016 0
DWIDTH 28 0
BBX 24 32 0 6
BITMAP
0003E0
0003E0
0003E0
0003E0
003C00
003C00
003C00
003C00
000000
000000
000000
000000
07FFE0
07FFE0
07FFE0
07FFE0
00001F
00001F
00001F
00001F
07FFFF
07FFFF
07FFFF
07FFFF
F8001F
F8001F
F8001F
F8001F
07FFFF
07FFFF
07FFFF
07FFFF
ENDCHAR
STARTCHAR 226
ENCODING 226
SWIDTH 2016 0
DWIDTH 28 0
BBX 24 32 0 6
BITMAP
003C00
003C00
003C00
003C00
07C3E0
07C3E0
07C3E0
07C3E0
000000
000000
000000
000000
07FFE0
07FFE0
07FFE0
07FFE0
00001F
00001F
00001F
00001F
07FFFF
07FFFF
07FFFF
07FFFF
F8001F
F8001F
F8001F
F8001F
07FFFF
07FFFF
07FFFF
07FFFF
ENDCHAR
STARTCHAR 227
ENCODING 227
SWIDTH 2016 0
DWIDTH 28 0
BBX 24 32 0 6
BITMAP
07FC1F
07FC1F
07FC1F
07FC1F
F83FE0
F83FE0
F83FE0
F83FE0
000000
000000
000000
000000
07FFE0
07FFE0
07FFE0
07FFE0
00001F
00001F
00001F
00001F
07FFFF
07FFFF
07FFFF
07FFFF
F8001F
F8001F
F8001F
F8001F
07FFFF
07FFFF
07FFFF
07FFFF
ENDCHAR
STARTCHAR 228
ENCODING 228
SWIDTH 2016 0
DWIDTH 28 0
BBX 24 28 0 6
BITMAP
07C3E0
07C3E0
07C3E0
07C3E0
000000
000000
000000
000000
07FFE0
07FFE0
07FFE0
07FFE0
00001F
00001F
00001F
00001F
07FFFF
07FFFF
07FFFF
07FFFF
F8001F
F8001F
F8001F
F8001F
07FFFF
07FFFF
07FFFF
07FFFF
ENDCHAR
STARTCHAR 229
ENCODING 229
SWIDTH 2016 0
DWIDTH 28 0
BBX 24 32 0 6
BITMAP
003C00
003C00
003C00
003C00
07C3E0
07C3E0
07C3E0
07C3E0
003C00
003C00
003C00
003C00
07FFE0
07FFE0
07FFE0
07FFE0
00001F
00001F
00001F
00001F
07FFFF
07FFFF
07FFFF
07FFFF
F8001F
F8001F
F8001F
F8001F
07FFFF
07FFFF
07FFFF
07FFFF
ENDCHAR
STARTCHAR 230
ENCODING 230
SWIDTH 2016 0
DWIDTH 28 0
BBX 24 20 0 6
BITMAP
07FFE0
07FFE0
07FFE0
07FFE0
003C1F
003C1F
003C1F
003C1F
07FFE0
07FFE0
07FFE0
07FFE0
F83C00
F83C00
F83C00
F83C00
07FFFF
07FFFF
07FFFF
07FFFF
ENDCHAR
STARTCHAR 231
ENCODING 231
SWIDTH 2016 0
DWIDTH 28 0
BBX 24 28 0 -2
BITMAP
07FFE0
07FFE0
07FFE0
07FFE0
F8001F
F8001F
F8001F
F8001F
F80000
F80000
F80000
F80000
F8001F
F8001F
F8001F
F8001F
07FFE0
07FFE0
07FFE0
07FFE0
0003E0
0003E0
0003E0
0003E0
07FC00
07FC00
07FC00
07FC00
ENDCHAR
STARTCHAR 232
ENCODING 232
SWIDTH 2016 0
DWIDTH 28 0
BBX 24 32 0 6
BITMAP
07C000
07C000
07C000
07C000
003C00
003C00
003C00
003C00
000000
000000
000000
000000
07FFE0
07FFE0
07FFE0
07FFE0
F8001F
F8001F
F8001F
F8001F
FFFFE0
FFFFE0
FFFFE0
FFFFE0
F80000
F80000
F80000
F80000
07FFE0
07FFE0
07FFE0
07FFE0
ENDCHAR
STARTCHAR 233
ENCODING 233
SWIDTH 2016 0
DWIDTH 28 0
BBX 24 32 0 6
BITMAP
0003E0
0003E0
0003E0
0003E0
003C00
003C00
003C00
003C00
000000
000000
000000
000000
07FFE0
07FFE0
07FFE0
07FFE0
F8001F
F8001F
F8001F
F8001F
FFFFE0
FFFFE0
FFFFE0
FFFFE0
F80000
F80000
F80000
F80000
07FFE0
07FFE0
07FFE0
07FFE0
ENDCHAR
STARTCHAR 234
ENCODING 234
SWIDTH 2016 0
DWIDTH 28 0
BBX 24 32 0 6
BITMAP
003C00
003C00
003C00
003C00
07C3E0
07C3E0
07C3E0
07C3E0
000000
000000
000000
000000
07FFE0
07FFE0
07FFE0
07FFE0
F8001F
F8001F
F8001F
F8001F
FFFFE0
FFFFE0
FFFFE0
FFFFE0
F80000
F80000
F80000
F80000
07FFE0
07FFE0
07FFE0
07FFE0
ENDCHAR
STARTCHAR 235
ENCODING 235
SWIDTH 2016 0
DWIDTH 28 0
BBX 24 28 0 6
BITMAP
07C3E0
07C3E0
07C3E0
07C3E0
000000
000000
000000
000000
07FFE0
07FFE0
07FFE0
07FFE0
F8001F
F8001F
F8001F
F8001F
FFFFE0
FFFFE0
FFFFE0
FFFFE0
F80000
F80000
F80000
F80000
07FFE0
07FFE0
07FFE0
07FFE0
ENDCHAR
STARTCHAR 236
ENCODING 236
SWIDTH 2016 0
DWIDTH 28 0
BBX 14 32 5 6
BITMAP
F800
F800
F800
F800
0780
0780
0780
0780
0000
0000
0000
0000
FF80
FF80
FF80
FF80
0780
0780
0780
0780
0780
0780
0780
0780
0780
0780
0780
0780
FFFC
FFFC
FFFC
FFFC
ENDCHAR
STARTCHAR 237
ENCODING 237
SWIDTH 2016 0
DWIDTH 28 0
BBX 14 32 5 6
BITMAP
007C
007C
007C
007C
0780
0780
0780
0780
0000
0000
0000
0000
FF80
FF80
FF80
FF80
0780
0780
0780
0780
0780
0780
0780
0780
0780
0780
0780
0780
FFFC
FFFC
FFFC
FFFC
ENDCHAR
STARTCHAR 238
ENCODING 238
SWIDTH 2016 0
DWIDTH 28 0
BBX 14 32 5 6
BITMAP
0780
0780
0780
0780
F87C
F87C
F87C
F87C
0000
0000
0000
0000
FF80
FF80
FF80
FF80
0780
0780
0780
0780
0780
0780
0780
0780
0780
0780
0780
0780
FFFC
FFFC
FFFC
FFFC
ENDCHAR
STARTCHAR 239
ENCODING 239
SWIDTH 2016 0
DWIDTH 28 0
BBX 14 28 5 6
BITMAP
F87C
F87C
F87C
F87C
0000
0000
0000
0000
FF80
FF80
FF80
FF80
0780
0780
0780
0780
0780
0780
0780
0780
0780
0780
0780
0780
FFFC
FFFC
FFFC
FFFC
ENDCHAR
STARTCHAR 240
ENCODING 240
SWIDTH 2016 0
DWIDTH 28 0
BBX 24 36 0 6
BITMAP
07C3E0
07C3E0
07C3E0
07C3E0
003C00
003C00
003C00
003C00
07C3E0
07C3E0
07C3E0
07C3E0
00001F
00001F
00001F
00001F
07FFFF
07FFFF
07FFFF
07FFFF
F8001F
F8001F
F8001F
F8001F
F8001F
F8001F
F8001F
F8001F
F8001F
F8001F
F8001F
F8001F
07FFE0
07FFE0
07FFE0
07FFE0
ENDCHAR
STARTCHAR 241
ENCODING 241
SWIDTH 2016 0
DWIDTH 28 0
BBX 24 32 0 6
BITMAP
07FC1F
07FC1F
07FC1F
07FC1F
F83FE0
F83FE0
F83FE0
F83FE0
000000
000000
000000
000000
F83FE0
F83FE0
F83FE0
F83FE0
FFC01F
FFC01F
FFC01F
FFC01F
F8001F
F8001F
F8001F
F8001F
F8001F
F8001F
F8001F
F8001F
F8001F
F8001F
F8001F
F8001F
ENDCHAR
STARTCHAR 242
ENCODING 242
SWIDTH 2016 0
DWIDTH 28 0
BBX 24 32 0 6
BITMAP
07C000
07C000
07C000
07C000
003C00
003C00
003C00
003C00
000000
000000
000000
000000
07FFE0
07FFE0
07FFE0
07FFE0
F8001F
F8001F
F8001F
F8001F
F8001F
F8001F
F8001F
F8001F
F8001F
F8001F
F8001F
F8001F
07FFE0
07FFE0
07FFE0
07FFE0
ENDCHAR
STARTCHAR 243
ENCODING 243
SWIDTH 2016 0
DWIDTH 28 0
BBX 24 32 0 6
BITMAP
0003E0
0003E0
0003E0
0003E0
003C00
003C00
003C00
003C00
000000
000000
000000
000000
07FFE0
07FFE0
07FFE0
07FFE0
F8001F
F8001F
F8001F
F8001F
F8001F
F8001F
F8001F
F8001F
F8001F
F8001F
F8001F
F8001F
07FFE0
07FFE0
07FFE0
07FFE0
ENDCHAR
STARTCHAR 244
ENCODING 244
SWIDTH 2016 0
DWIDTH 28 0
BBX 24 32 0 6
BITMAP
003C00
003C00
003C00
003C00
07C3E0
07C3E0
07C3E0
07C3E0
000000
000000
000000
000000
07FFE0
07FFE0
07FFE0
07FFE0
F8001F
F8001F
F8001F
F8001F
F8001F
F8001F
F8001F
F8001F
F8001F
F8001F
F8001F
F8001F
07FFE0
07FFE0
07FFE0
07FFE0
ENDCHAR
STARTCHAR 245
ENCODING 245
SWIDTH 2016 0
DWIDTH 28 0
BBX 24 32 0 6
BITMAP
07FC1F
07FC1F
07FC1F
07FC1F
F83FE0
F83FE0
F83FE0
F83FE0
000000
000000
000000
000000
07FFE0
07FFE0
07FFE0
07FFE0
F8001F
F8001F
F8001F
F8001F
F8001F
F8001F
F8001F
F8001F
F8001F
F8001F
F8001F
F8001F
07FFE0
07FFE0
07FFE0
07FFE0
ENDCHAR
STARTCHAR 246
ENCODING 246
SWIDTH 2016 0
DWIDTH 28 0
BBX 24 28 0 6
BITMAP
07C3E0
07C3E0
07C3E0
07C3E0
000000
000000
000000
000000
07FFE0
07FFE0
07FFE0
07FFE0
F8001F
F8001F
F8001F
F8001F
F8001F
F8001F
F8001F
F8001F
F8001F
F8001F
F8001F
F8001F
07FFE0
07FFE0
07FFE0
07FFE0
ENDCHAR
STARTCHAR 247
ENCODING 247
SWIDTH 2016 0
DWIDTH 28 0
BBX 24 20 0 10
BITMAP
003C00
003C00
003C00
003C00
000000
000000
000000
000000
FFFFFF
FFFFFF
FFFFFF
FFFFFF
000000
000000
000000
000000
003C00
003C00
003C00
003C00
ENDCHAR
STARTCHAR 248
ENCODING 248
SWIDTH 2016 0
DWIDTH 28 0
BBX 24 20 0 6
BITMAP
07FFFF
07FFFF
07FFFF
07FFFF
F803FF
F803FF
F803FF
F803FF
F83C1F
F83C1F
F83C1F
F83C1F
FFC01F
FFC01F
FFC01F
FFC01F
FFFFE0
FFFFE0
FFFFE0
FFFFE0
ENDCHAR
STARTCHAR 249
ENCODING 249
SWIDTH 2016 0
DWIDTH 28 0
BBX 24 32 0 6
BITMAP
07C000
07C000
07C000
07C000
003C00
003C00
003C00
003C00
000000
000000
000000
000000
F8001F
F8001F
F8001F
F8001F
F8001F
F8001F
F8001F
F8001F
F8001F
F8001F
F8001F
F8001F
F8001F
F8001F
F8001F
F8001F
07FFE0
07FFE0
07FFE0
07FFE0
ENDCHAR
STARTCHAR 250
ENCODING 250
SWIDTH 2016 0
DWIDTH 28 0
BBX 24 32 0 6
BITMAP
0003E0
0003E0
0003E0
0003E0
003C00
003C00
003C00
003C00
000000
000000
000000
000000
F8001F
F8001F
F8001F
F8001F
F8001F
F8001F
F8001F
F8001F
F8001F
F8001F
F8001F
F8001F
F8001F
F8001F
F8001F
F8001F
07FFE0
07FFE0
07FFE0
07FFE0
ENDCHAR
STARTCHAR 251
ENCODING 251
SWIDTH 2016 0
DWIDTH 28 0
BBX 24 32 0 6
BITMAP
003C00
003C00
003C00
003C00
07C3E0
07C3E0
07C3E0
07C3E0
000000
000000
000000
000000
F8001F
F8001F
F8001F
F8001F
F8001F
F8001F
F8001F
F8001F
F8001F
F8001F
F8001F
F8001F
F8001F
F8001F
F8001F
F8001F
07FFE0
07FFE0
07FFE0
07FFE0
ENDCHAR
STARTCHAR 252
ENCODING 252
SWIDTH 2016 0
DWIDTH 28 0
BBX 24 28 0 6
BITMAP
07C3E0
07C3E0
07C3E0
07C3E0
000000
000000
000000
000000
F8001F
F8001F
F8001F
F8001F
F8001F
F8001F
F8001F
F8001F
F8001F
F8001F
F8001F
F8001F
F8001F
F8001F
F8001F
F8001F
07FFE0
07FFE0
07FFE0
07FFE0
ENDCHAR
STARTCHAR 253
ENCODING 253
SWIDTH 2016 0
DWIDTH 28 0
BBX 24 40 0 -2
BITMAP
0003E0
0003E0
0003E0
0003E0
003C00
003C00
003C00
003C00
000000
000000
000000
000000
F8001F
F8001F
F8001F
F8001F
F8001F
F8001F
F8001F
F8001F
F8001F
F8001F
F8001F
F8001F
07C3E0
07C3E0
07C3E0
07C3E0
003C00
003C00
003C00
003C00
07C000
07C000
07C000
07C000
F80000
F80000
F80000
F80000
ENDCHAR
STARTCHAR 254
ENCODING 254
SWIDTH 2016 0
DWIDTH 28 0
BBX 24 36 0 -2
BITMAP
F80000
F80000
F80000
F80000
F80000
F80000
F80000
F80000
FFFFE0
FFFFE0
FFFFE0
FFFFE0
F8001F
F8001F
F8001F
F8001F
F8001F
F8001F
F8001F
F8001F
F8001F
F8001F
F8001F
F8001F
FFFFE0
FFFFE0
FFFFE0
FFFFE0
F80000
F80000
F80000
F80000
F80000
F80000
F80000
F80000
ENDCHAR
STARTCHAR 255
ENCODING 255
SWIDTH 2016 0
DWIDTH 28 0
BBX 24 36 0 -2
BITMAP
07C3E0
07C3E0
07C3E0
07C3E0
000000
000000
000000
000000
F8001F
F8001F
F8001F
F8001F
F8001F
F8001F
F8001F
F8001F
F8001F
F8001F
F8001F
F8001F
07C3E0
07C3E0
07C3E0
07C3E0
003C00
003C00
003C00
003C00
07C000
07C000
07C000
07C000
F80000
F80000
F80000
F80000
ENDCHAR
ENDFONT
